<svg xmlns="http://www.w3.org/2000/svg" viewBox="0 0 200 167" width="200" height="167">
	<style>
		tspan { white-space:pre }
		.shp0 { fill: #fc3613 } 
		.shp1 { fill: #000000 } 
		.shp2 { fill: #ffffff } 
		.shp3 { fill: #636468 } 
		.shp4 { fill: #aeb3b6 } 
	</style>
	<g >
		<path class="shp0" d="M96.89 0.12C96.3 0.15 94.59 0.28 93.09 0.4C91.6 0.52 89.14 0.79 87.65 1C86.15 1.21 83.7 1.65 82.2 1.97C80.7 2.3 78.69 2.78 77.72 3.05C76.76 3.31 74.7 3.96 73.15 4.47C71.6 4.99 69.06 5.95 67.51 6.61C65.96 7.27 63.29 8.53 61.58 9.42C59.86 10.31 57.46 11.67 56.23 12.45C55 13.22 53.16 14.44 52.14 15.15C51.12 15.86 49.24 17.28 47.96 18.31C46.67 19.35 44.83 20.92 43.87 21.81C42.91 22.7 41.61 23.96 40.98 24.61C40.35 25.26 38.96 26.75 37.89 27.93C36.83 29.11 35.19 31.08 34.26 32.31C33.33 33.54 32.08 35.25 31.49 36.11C30.9 36.96 29.75 38.76 28.94 40.1C28.14 41.43 26.73 44.02 25.82 45.84C24.92 47.66 23.69 50.37 23.09 51.87C22.5 53.37 21.7 55.56 21.31 56.74C20.92 57.91 20.31 60.02 19.94 61.41C19.57 62.8 19.1 64.77 18.89 65.79C18.68 66.8 18.42 68.21 18.31 68.9C18.2 69.6 17.97 71.26 17.8 72.6C17.62 73.94 17.41 76.78 17.33 78.93C17.25 81.07 17.25 84.44 17.34 86.42C17.43 88.4 17.64 91.12 17.81 92.45C17.98 93.79 18.24 95.59 18.39 96.44C18.54 97.3 18.74 98.44 18.85 98.97C18.95 99.51 19.14 100.38 19.27 100.92C19.4 101.46 19.84 103.12 20.25 104.62C20.67 106.12 21.3 108.22 21.67 109.29C22.04 110.36 22.52 111.72 22.75 112.31C22.98 112.9 23.24 113.55 23.34 113.77C23.44 113.98 23.72 114.62 23.97 115.19C24.21 115.75 24.53 116.21 24.66 116.21C24.79 116.2 24.99 115.94 25.1 115.62L25.29 115.03C28.5 115.03 29.42 114.95 29.47 114.84C29.53 114.73 29.17 113.7 28.68 112.55C28.19 111.4 27.32 109.06 26.74 107.34C26.16 105.63 25.38 103 25.01 101.5C24.63 100.01 24.06 97.29 23.75 95.47C23.44 93.65 23.07 90.94 22.93 89.44C22.79 87.94 22.68 84.74 22.68 82.33C22.68 79.92 22.8 76.81 22.93 75.42C23.07 74.03 23.31 72.06 23.47 71.04C23.63 70.03 23.93 68.32 24.14 67.25C24.36 66.18 24.67 64.73 24.83 64.04C25 63.34 25.39 61.9 25.71 60.82C26.03 59.75 26.56 58.09 26.89 57.13C27.22 56.16 28.05 54.02 28.74 52.36C29.43 50.7 30.55 48.29 31.21 47.01C31.88 45.72 32.85 43.97 33.36 43.11C33.88 42.26 34.98 40.53 35.83 39.27C36.67 38.01 38.08 36.04 38.98 34.89C39.87 33.74 41.52 31.79 42.65 30.56C43.77 29.33 45.56 27.49 46.62 26.47C47.67 25.45 49.33 23.96 50.29 23.15C51.25 22.34 52.74 21.15 53.6 20.51C54.46 19.86 55.94 18.81 56.91 18.17C57.87 17.52 59.58 16.45 60.7 15.77C61.82 15.1 63.84 14 65.18 13.33C66.51 12.66 68.53 11.72 69.65 11.23C70.77 10.75 72.79 9.96 74.12 9.47C75.46 8.99 77.87 8.24 79.47 7.8C81.08 7.36 83.44 6.79 84.73 6.53C86.01 6.27 88.46 5.86 90.18 5.62C92.91 5.23 94.1 5.18 100 5.18C105.28 5.18 107.21 5.25 109.05 5.51C110.33 5.7 112.17 5.98 113.13 6.14C114.1 6.3 115.89 6.66 117.12 6.93C118.35 7.21 120.19 7.68 121.21 7.98C122.22 8.29 123.67 8.73 124.42 8.96C125.17 9.19 126.83 9.8 128.11 10.31C129.4 10.82 130.89 11.43 131.42 11.68C131.96 11.92 133.31 12.57 134.44 13.13C135.56 13.69 136.79 14.32 137.16 14.54C137.53 14.75 138.37 15.22 139.01 15.58C139.65 15.94 141.23 16.93 142.51 17.78C143.79 18.64 145.72 20 146.79 20.81C147.86 21.62 149.61 23.04 150.68 23.97C151.75 24.9 153.73 26.78 155.07 28.16C156.42 29.53 158.13 31.36 158.87 32.21C159.61 33.07 160.89 34.65 161.7 35.72C162.51 36.79 163.92 38.8 164.82 40.19C165.73 41.58 166.91 43.51 167.45 44.47C167.99 45.44 168.83 47.01 169.31 47.98C169.79 48.94 170.6 50.69 171.11 51.87C171.61 53.05 172.4 55.06 172.86 56.35C173.32 57.63 173.96 59.6 174.3 60.73C174.63 61.85 175.13 63.73 175.4 64.91C175.67 66.09 176.06 68.06 176.27 69.29C176.48 70.52 176.78 72.71 176.93 74.16C177.09 75.6 177.27 78.27 177.34 80.09C177.42 82.02 177.38 84.87 177.25 86.91C177.12 88.83 176.9 91.37 176.74 92.55C176.58 93.73 176.32 95.39 176.16 96.25C176 97.11 175.64 98.81 175.37 100.04C175.09 101.28 174.65 103.03 174.39 103.94C174.13 104.85 173.56 106.64 173.12 107.93C172.68 109.21 171.9 111.27 171.38 112.5C170.86 113.73 170.48 114.81 170.53 114.89C170.58 114.97 171.61 115.03 172.81 115.04L175 115.04C175.41 114.2 175.83 113.17 176.2 112.21C176.57 111.25 177.26 109.28 177.72 107.83C178.19 106.38 178.8 104.33 179.08 103.26C179.36 102.19 179.81 100.24 180.07 98.93C180.33 97.61 180.67 95.69 180.83 94.64C180.98 93.6 181.24 91.3 181.41 89.53C181.58 87.77 181.71 84.66 181.71 82.62C181.71 80.59 181.58 77.48 181.42 75.71C181.27 73.95 181.01 71.58 180.85 70.46C180.69 69.34 180.37 67.5 180.15 66.37C179.92 65.25 179.52 63.45 179.25 62.38C178.99 61.31 178.42 59.3 177.98 57.91C177.55 56.51 176.81 54.37 176.33 53.14C175.86 51.91 175.02 49.89 174.46 48.66C173.91 47.43 173.03 45.59 172.5 44.57C171.97 43.56 170.97 41.76 170.27 40.58C169.57 39.4 168.34 37.48 167.54 36.3C166.74 35.12 165.68 33.63 165.19 32.99C164.7 32.35 163.47 30.82 162.46 29.59C161.44 28.35 159.3 26.03 157.69 24.42C156.08 22.81 154.15 20.96 153.4 20.32C152.66 19.67 151.17 18.45 150.1 17.6C149.03 16.75 146.97 15.26 145.53 14.28C144.08 13.31 141.54 11.74 139.88 10.79C138.22 9.85 135.64 8.51 134.14 7.83C132.65 7.14 130.76 6.31 129.96 5.99C129.16 5.67 127.41 5.03 126.07 4.57C124.73 4.1 122.63 3.45 121.4 3.11C120.17 2.77 118.59 2.36 117.9 2.21C117.2 2.06 115.76 1.77 114.69 1.57C113.62 1.36 111.74 1.06 110.51 0.89C109.28 0.73 107.31 0.51 106.13 0.4C104.95 0.3 102.63 0.18 100.97 0.13C99.31 0.09 97.48 0.08 96.89 0.12Z" />
		<path class="shp1" d="M94.53 5.2C93.93 5.25 92 5.46 90.25 5.67C88.5 5.88 86.01 6.27 84.73 6.53C83.44 6.79 81.08 7.36 79.47 7.8C77.87 8.24 75.46 8.99 74.12 9.47C72.79 9.96 70.77 10.75 69.65 11.23C68.53 11.72 66.51 12.66 65.18 13.33C63.84 14 61.82 15.1 60.7 15.77C59.58 16.45 57.87 17.52 56.91 18.17C55.94 18.81 54.46 19.86 53.6 20.51C52.74 21.15 51.25 22.34 50.29 23.15C49.33 23.96 47.67 25.45 46.62 26.47C45.56 27.49 43.77 29.33 42.65 30.56C41.52 31.79 39.87 33.74 38.98 34.89C38.08 36.04 36.67 38.01 35.83 39.27C34.98 40.53 33.88 42.26 33.36 43.11C32.85 43.97 31.88 45.72 31.21 47.01C30.55 48.29 29.43 50.7 28.74 52.36C28.05 54.02 27.22 56.16 26.89 57.13C26.56 58.09 26.03 59.75 25.71 60.82C25.39 61.9 25 63.34 24.83 64.04C24.67 64.73 24.36 66.18 24.14 67.25C23.93 68.32 23.63 70.03 23.47 71.04C23.31 72.06 23.07 74.03 22.93 75.42C22.8 76.81 22.68 79.92 22.68 82.33C22.68 84.74 22.79 87.94 22.93 89.44C23.07 90.94 23.44 93.65 23.75 95.47C24.06 97.29 24.63 100.01 25.01 101.5C25.38 103 26.16 105.63 26.74 107.34C27.32 109.06 28.19 111.42 28.69 112.6C29.19 113.78 29.52 114.8 29.44 114.88C29.35 114.95 28.37 115.04 27.25 115.07L25.23 115.13C24.04 118.45 23.35 120.37 22.92 121.55C22.5 122.73 22.05 123.99 21.92 124.34C21.8 124.7 21.61 124.99 21.5 124.98C21.39 124.98 21.24 124.42 21.16 123.75C21.09 123.08 20.89 121.47 20.72 120.19C20.55 118.9 20.31 117.22 20.18 116.44L19.94 115.02C2.3 115.03 0.2 115.08 0.2 115.27C0.2 115.41 0.74 116.61 1.39 117.95C2.05 119.29 3.28 121.83 4.13 123.6C5.6 126.65 5.67 126.86 5.55 127.78C5.49 128.32 5.31 129.59 5.16 130.6C5.02 131.62 4.8 133.15 4.69 134.01C4.58 134.87 4.35 136.49 4.2 137.61C4.04 138.73 3.77 140.7 3.61 141.99C3.44 143.27 3.22 144.81 3.12 145.4C3.02 145.98 2.89 147.03 2.82 147.73C2.75 148.43 2.62 149.48 2.53 150.07C2.43 150.66 2.22 152.19 2.05 153.47C1.88 154.76 1.66 156.38 1.55 157.07C1.45 157.77 1.22 159.39 1.06 160.67C0.89 161.96 0.64 163.84 0.49 164.86C0.35 165.88 0.29 166.79 0.36 166.88C0.43 166.98 0.79 166.99 1.17 166.91C1.54 166.84 2.59 166.7 3.5 166.61C4.41 166.52 6.6 166.31 8.37 166.14C10.13 165.98 11.93 165.79 12.35 165.73L13.13 165.61C13.68 161.03 13.92 159.22 14.03 158.63C14.13 158.04 14.24 157.53 14.26 157.5C14.28 157.47 15.66 157.37 17.32 157.27C18.97 157.17 20.39 157.15 20.46 157.23C20.53 157.3 20.51 158.07 20.42 158.92C20.32 159.78 20.15 161.49 20.03 162.72C19.92 163.95 19.88 165 19.95 165.05C20.01 165.11 21.88 165 24.09 164.8C26.3 164.61 29.21 164.37 30.54 164.27C31.88 164.17 34.99 163.95 37.45 163.78C39.91 163.61 42.01 163.45 42.12 163.41C42.23 163.38 42.43 162.75 42.57 162.01C42.71 161.28 42.95 159.97 43.11 159.12C43.26 158.26 43.47 157.17 43.57 156.68C43.67 156.2 43.8 155.39 43.86 154.88C43.92 154.38 44.03 153.96 44.11 153.96C44.2 153.96 44.33 154.86 44.41 155.95C44.5 157.05 44.61 158.78 44.67 159.8C44.72 160.82 44.8 162.02 44.85 162.47L44.94 163.3C48.03 163.14 50.77 163.01 53.02 162.91C55.26 162.8 59.55 162.63 62.55 162.52C65.54 162.41 68.65 162.29 69.46 162.24C70.26 162.19 70.97 162.08 71.04 162C71.1 161.91 71.26 161.23 71.38 160.48C71.49 159.73 71.73 158.37 71.89 157.46C72.06 156.55 72.27 155.37 72.36 154.84C72.45 154.3 72.65 153.14 72.79 152.25C72.94 151.37 73.14 150.65 73.25 150.65C73.38 150.65 73.38 152.24 73.27 155.37C73.17 157.97 73.09 160.53 73.07 161.06L73.05 162.04C83.91 161.89 95.03 161.86 104.77 161.89C114.5 161.91 124.25 162 126.43 162.08C128.61 162.16 130.47 162.19 130.57 162.13C130.67 162.08 130.7 161.88 130.65 161.7C130.59 161.51 130.6 161.25 130.66 161.11C130.74 160.95 131.01 161.1 131.49 161.59L132.2 162.31C140.34 162.62 143.62 162.77 144.75 162.84L146.79 162.98C147.47 162.02 147.75 161.74 147.86 161.74C147.97 161.74 148.05 161.96 148.05 162.23C148.05 162.56 148.2 162.77 148.49 162.89C148.73 162.98 150.11 163.11 151.56 163.16C153 163.22 155.98 163.37 158.17 163.49C160.36 163.61 162.17 163.68 162.18 163.65C162.19 163.62 162.13 162.94 162.04 162.13C161.95 161.33 161.81 160.08 161.72 159.36C161.63 158.51 161.64 158.07 161.77 158.11C161.88 158.15 162.45 159.31 163.04 160.69C163.63 162.07 164.2 163.37 164.31 163.56C164.46 163.86 164.87 163.94 166.83 164.08C168.11 164.18 170.96 164.39 173.15 164.56C175.35 164.73 178.23 164.96 179.57 165.06C180.91 165.16 182.35 165.29 182.78 165.34C183.21 165.4 184.61 165.53 185.89 165.64C187.18 165.74 189.76 165.96 191.63 166.13L195.04 166.43C195.64 165.63 196.72 164.25 197.83 162.84C199.31 160.95 199.81 160.18 199.73 159.9C199.67 159.68 199.53 158.89 199.41 158.14C199.3 157.39 199.08 155.99 198.93 155.03C198.78 154.07 198.35 151.44 197.98 149.19C197.6 146.94 197.21 144.62 197.1 144.03C197 143.44 196.8 142.27 196.66 141.43L196.4 139.89C193.16 136.69 192.22 135.69 192.22 135.61C192.22 135.53 192.87 135.47 193.68 135.47C194.94 135.47 195.14 135.42 195.13 135.13C195.13 134.94 195 134 194.83 133.04C194.67 132.07 194.41 130.54 194.27 129.63C194.12 128.72 193.95 127.71 193.87 127.39C193.79 127.02 193.84 126.6 194.03 126.22C194.19 125.9 194.99 124.15 195.82 122.33C196.64 120.51 197.52 118.58 197.76 118.05C198 117.51 198.38 116.66 198.61 116.15C198.84 115.64 199.03 115.18 199.03 115.13C199.03 115.08 192.64 115.03 184.82 115.03C177.01 115.03 170.58 114.97 170.53 114.89C170.48 114.81 170.86 113.73 171.38 112.5C171.9 111.27 172.68 109.21 173.12 107.93C173.56 106.64 174.13 104.85 174.39 103.94C174.65 103.03 175.09 101.28 175.37 100.04C175.64 98.81 176 97.11 176.16 96.25C176.32 95.39 176.58 93.73 176.74 92.55C176.9 91.37 177.12 88.83 177.25 86.91C177.38 84.87 177.42 82.02 177.34 80.09C177.27 78.27 177.09 75.6 176.93 74.16C176.78 72.71 176.48 70.52 176.27 69.29C176.06 68.06 175.67 66.09 175.4 64.91C175.13 63.73 174.63 61.85 174.3 60.73C173.96 59.6 173.32 57.63 172.86 56.35C172.4 55.06 171.61 53.05 171.11 51.87C170.6 50.69 169.79 48.94 169.31 47.98C168.83 47.01 167.99 45.44 167.45 44.47C166.91 43.51 165.73 41.58 164.82 40.19C163.92 38.8 162.51 36.79 161.7 35.72C160.89 34.65 159.61 33.07 158.87 32.21C158.13 31.36 156.42 29.53 155.07 28.16C153.73 26.78 151.75 24.9 150.68 23.97C149.61 23.04 147.86 21.62 146.79 20.81C145.72 20 143.79 18.64 142.51 17.78C141.23 16.93 139.65 15.94 139.01 15.58C138.37 15.22 137.53 14.75 137.16 14.54C136.79 14.32 135.56 13.69 134.44 13.13C133.31 12.57 131.96 11.92 131.42 11.68C130.89 11.43 129.4 10.82 128.11 10.31C126.83 9.8 125.17 9.19 124.42 8.96C123.67 8.73 122.22 8.29 121.21 7.98C120.19 7.68 118.35 7.21 117.12 6.93C115.89 6.66 114.1 6.3 113.13 6.14C112.17 5.98 110.37 5.71 109.14 5.54C107.66 5.34 105 5.21 101.26 5.17C98.16 5.14 95.13 5.15 94.53 5.2Z" />
		<path class="shp2" d="M93.68 8.95C92.71 9.04 91.18 9.21 90.27 9.33C89.36 9.45 87.87 9.69 86.96 9.85C86.06 10.01 84.04 10.46 82.49 10.84C80.94 11.22 78.36 11.96 76.75 12.5C75.15 13.03 73 13.82 71.98 14.25C70.97 14.67 69.17 15.48 68 16.04C66.82 16.6 64.89 17.61 63.72 18.29C62.54 18.96 60.55 20.2 59.29 21.05C58.03 21.89 56.24 23.16 55.3 23.87C54.37 24.59 52.72 25.93 51.65 26.87C50.58 27.8 48.57 29.73 47.18 31.17C45.78 32.6 43.89 34.69 42.98 35.81C42.06 36.94 40.69 38.73 39.92 39.8C39.16 40.87 37.75 43.06 36.79 44.67C35.83 46.28 34.47 48.77 33.76 50.22C33.05 51.66 32.08 53.81 31.62 54.99C31.15 56.16 30.46 58.05 30.09 59.17C29.72 60.29 29.2 62 28.93 62.97C28.67 63.93 28.32 65.33 28.15 66.08C27.98 66.83 27.71 68.14 27.55 69C27.4 69.86 27.17 71.13 27.05 71.82C26.94 72.52 26.71 74.62 26.55 76.49C26.39 78.37 26.27 81.08 26.27 82.53C26.27 83.97 26.4 86.6 26.56 88.37C26.71 90.13 26.97 92.41 27.13 93.43C27.29 94.44 27.55 95.98 27.72 96.83C27.89 97.69 28.21 99.13 28.43 100.04C28.65 100.95 29.08 102.53 29.38 103.55C29.69 104.56 30.21 106.19 30.55 107.15C30.89 108.11 31.74 110.26 32.46 111.92L33.75 114.93L38.13 115.03C38.11 116.77 37.99 118.23 37.85 119.41C37.62 121.28 37.63 121.61 37.88 122.04C38.05 122.33 38.23 122.45 38.32 122.33C38.4 122.22 38.56 121.7 38.67 121.16C38.78 120.63 39.09 119.18 39.36 117.95C39.64 116.72 39.91 115.56 39.97 115.37C40.07 115.06 40.62 115.03 47.86 115.03L55.64 115.03C56.4 116.24 56.92 116.94 57.3 117.37L57.98 118.15C56.85 118.33 56.12 118.33 55.64 118.26C55.16 118.19 54.61 118.18 54.43 118.23C54.15 118.32 54.1 118.5 54.18 119.26C54.23 119.77 54.36 121.28 54.47 122.62C54.58 123.96 54.8 126.63 54.96 128.56C55.13 130.49 55.35 133.07 55.45 134.3C55.56 135.53 55.73 137.72 55.84 139.17C55.95 140.61 56.08 142.28 56.13 142.86C56.18 143.45 56.36 145.6 56.52 147.63C56.69 149.67 56.9 152.16 57 153.18C57.1 154.2 57.25 156.03 57.34 157.25L57.49 159.46C65.78 159.25 68.26 159.12 68.34 159.05C68.42 158.98 68.71 157.65 68.98 156.1C69.26 154.55 69.65 152.31 69.85 151.14C70.05 149.96 70.4 147.94 70.63 146.66C70.85 145.38 71.16 143.62 71.31 142.77C71.45 141.91 71.75 140.2 71.97 138.97C72.19 137.74 72.54 135.73 72.75 134.5C72.97 133.26 73.59 129.63 74.14 126.42C74.68 123.21 75.19 120.51 75.26 120.43C75.33 120.35 75.74 120.16 76.17 120.01C76.6 119.86 77.01 119.79 77.08 119.86C77.16 119.94 77.14 123.63 77.03 128.07C76.93 132.51 76.77 138.69 76.67 141.79C76.57 144.9 76.46 149.1 76.43 151.14C76.4 153.17 76.37 155.75 76.37 156.88C76.36 158.58 76.41 158.92 76.65 158.9C76.81 158.89 81.1 158.81 86.19 158.73C91.27 158.65 95.47 158.52 95.53 158.43C95.58 158.35 95.62 156.96 95.62 155.35C95.62 153.67 95.54 152.33 95.43 152.21C95.29 152.06 93.52 152.01 89.64 152.05L84.05 152.11C84.05 144.27 84.12 141.88 84.2 141.75C84.3 141.58 85.51 141.48 88.42 141.4L92.51 141.28L92.61 134.88L84.24 134.88L84.25 127.59C82.28 125.85 81.71 125.22 81.71 125.06C81.71 124.8 82.61 124.76 88.47 124.71L95.23 124.67C95.34 119.35 95.29 118.58 95.1 118.4C94.91 118.22 92.93 118.16 87.4 118.15L79.96 118.15C80.95 117.01 81.58 116.12 81.99 115.42C82.4 114.72 82.87 114.06 83.05 113.94C83.22 113.82 83.85 113.31 84.44 112.81C85.02 112.3 85.81 111.52 86.19 111.07C86.56 110.61 87.01 110.03 87.18 109.77L87.5 109.29C89.43 111.1 90.99 112.39 92.22 113.32L94.46 115.02C96.89 115.03 97.66 114.97 97.72 114.89C97.79 114.81 96.87 114.05 95.66 113.21C94.46 112.37 92.91 111.22 92.22 110.65C91.52 110.08 90.43 109.11 89.78 108.48C89.14 107.86 88.37 107.06 88.08 106.71C87.79 106.36 87.46 105.73 87.35 105.3C87.25 104.87 87.09 104.52 87.01 104.52C86.93 104.51 86.66 105.19 86.41 106.02C86.16 106.86 85.77 107.89 85.55 108.32C85.33 108.74 84.75 109.52 84.26 110.05C83.77 110.57 82.77 111.47 82.05 112.04C81.33 112.62 80.74 113.17 80.74 113.28C80.74 113.39 80.41 113.99 80.01 114.62C79.61 115.25 78.89 116.09 78.4 116.49C77.92 116.89 77.22 117.34 76.85 117.5C76.47 117.66 75.47 118 74.61 118.26C73.75 118.52 72.35 118.82 71.5 118.93C70.64 119.03 69.29 119.12 68.48 119.11C67.68 119.11 66.37 119.02 65.56 118.91C64.76 118.81 63.45 118.49 62.65 118.21C61.84 117.93 60.79 117.43 60.31 117.1C59.83 116.76 59.15 116.21 58.8 115.86C58.46 115.51 58 114.88 57.78 114.45C57.57 114.02 57.39 113.47 57.4 113.23C57.4 112.99 57.49 112.53 57.61 112.21C57.81 111.67 57.74 111.48 56.76 109.87C55.69 108.12 55.69 108.12 54.74 107.98C54.22 107.91 53.44 107.72 53.02 107.56C52.56 107.39 51.9 106.89 51.41 106.34C50.85 105.7 50.5 105.08 50.34 104.42C50.21 103.89 50.12 102.66 50.13 101.7C50.15 100.74 50.34 98.68 50.57 97.12C50.79 95.57 51.12 93.91 51.29 93.43C51.45 92.94 51.71 92.29 51.86 91.97C52.01 91.65 52.28 91.15 52.47 90.86C52.67 90.57 53.13 90.11 53.5 89.83C53.88 89.56 54.66 89.19 55.25 89.02C56 88.81 56.69 88.75 57.54 88.83C58.21 88.9 59.13 89.12 59.58 89.33C60.04 89.54 60.54 89.85 60.7 90.02C60.86 90.19 61.04 90.33 61.09 90.32C61.14 90.32 61.25 89.83 61.33 89.24C61.41 88.65 61.73 87.67 62.03 87.05C62.33 86.44 62.83 85.54 63.13 85.06C63.43 84.58 63.84 83.81 64.04 83.35C64.28 82.8 64.4 82.06 64.4 81.12C64.4 80.02 64.23 79.2 63.68 77.47C63.11 75.72 62.95 74.9 62.95 73.75C62.94 72.83 63.04 72.06 63.22 71.71C63.37 71.4 63.86 70.75 64.3 70.26C64.96 69.55 65.15 69.15 65.35 68.12C65.49 67.43 65.86 66.35 66.17 65.74C66.48 65.12 66.73 64.44 66.73 64.23C66.73 64.02 66.64 63.84 66.54 63.84C66.43 63.84 65.94 64.26 65.44 64.77C64.95 65.27 64.4 65.93 64.23 66.23C64.05 66.52 63.82 66.77 63.72 66.77C63.61 66.77 63.43 66.26 63.32 65.65C63.17 64.83 63.17 64.15 63.34 63.16C63.47 62.41 63.78 61.27 64.04 60.63C64.3 59.99 64.92 58.85 65.42 58.1C65.92 57.35 66.92 56.12 67.65 55.37C68.37 54.62 69.56 53.62 70.29 53.14C71.02 52.65 71.61 52.22 71.6 52.16C71.6 52.11 71.14 51.86 70.57 51.6C70.01 51.34 68.68 50.97 67.61 50.78C66.54 50.58 65.64 50.38 65.61 50.32C65.59 50.26 65.94 49.95 66.39 49.61C66.85 49.28 67.98 48.63 68.92 48.15C69.86 47.68 70.62 47.21 70.62 47.1C70.62 47 70.33 46.49 69.98 45.98C69.63 45.47 69.05 44.36 68.69 43.5C68.34 42.65 67.67 40.5 67.21 38.73C66.75 36.97 66.32 35.35 66.25 35.13C66.14 34.81 66.23 34.72 66.81 34.6C67.45 34.46 67.58 34.52 68.26 35.18C68.67 35.58 69.61 36.23 70.35 36.62C71.09 37.01 72.26 37.56 72.96 37.85C73.65 38.13 75.01 38.75 75.97 39.23C76.94 39.71 78.12 40.43 78.6 40.84C79.08 41.25 79.8 42.08 80.2 42.69C80.62 43.32 81.04 43.75 81.18 43.7C81.31 43.65 82.47 43.42 83.75 43.2C85.04 42.98 87.23 42.68 88.62 42.52C90.01 42.37 91.24 42.15 91.34 42.04C91.47 41.91 91.46 41.4 91.29 40.53C91.16 39.81 90.7 38.5 90.27 37.61C89.84 36.73 89.49 35.96 89.49 35.91C89.49 35.86 89.87 35.55 90.32 35.22C90.78 34.9 91.28 34.64 91.44 34.64C91.6 34.65 92.75 35.28 93.99 36.06C95.22 36.83 97.06 38.08 98.07 38.83C99.08 39.58 100.43 40.69 101.07 41.29C102.11 42.26 102.36 42.4 103.31 42.52C103.9 42.59 105.6 42.86 107.1 43.12C108.6 43.37 111.05 43.88 112.55 44.25C114.05 44.62 115.75 45.06 116.34 45.22C116.93 45.38 118.73 45.95 120.33 46.48C121.94 47.02 124.26 47.85 125.49 48.33C126.72 48.81 128.47 49.53 129.38 49.92C130.29 50.32 132.08 51.16 133.37 51.78C134.65 52.41 136.53 53.37 137.55 53.93C138.57 54.49 140.18 55.42 141.15 56.01C142.11 56.6 143.73 57.66 144.75 58.36C146.13 59.32 146.5 59.67 146.21 59.72C145.99 59.75 144.94 59.56 143.87 59.28C142.8 59.01 140.66 58.57 139.11 58.3C137.55 58.04 135.7 57.8 134.98 57.77C134.19 57.73 133.68 57.79 133.69 57.91C133.7 58.01 134.42 58.48 135.29 58.94C136.16 59.41 137.83 60.43 139.01 61.21C140.18 61.99 141.89 63.22 142.8 63.95C143.71 64.68 145.64 66.47 147.08 67.92C148.53 69.37 150.25 71.26 150.92 72.11C151.58 72.97 152.39 74.04 152.72 74.5L153.31 75.33C152.48 75.33 151.32 75.02 150.19 74.64C149.07 74.26 147.41 73.7 146.5 73.39C145.59 73.09 144.43 72.74 143.92 72.62C143.41 72.5 142.91 72.45 142.8 72.5C142.69 72.56 142.61 72.69 142.61 72.79C142.61 72.9 143.23 73.97 144 75.18C144.76 76.38 146 78.46 146.75 79.8C147.5 81.14 148.42 82.89 148.79 83.69C149.16 84.5 149.68 85.72 149.93 86.42C150.19 87.12 150.35 87.71 150.3 87.73C150.24 87.76 149.6 87.45 148.88 87.05C148.16 86.64 146.69 85.88 145.62 85.36C144.55 84.84 142.67 84 141.44 83.49C140.21 82.99 139.14 82.61 139.06 82.65C138.98 82.69 138.91 83.05 138.91 83.45C138.91 83.85 139.1 84.93 139.34 85.84C139.68 87.16 139.76 88.06 139.77 90.31C139.77 92.8 139.7 93.39 139.21 95.28C138.91 96.45 138.37 98.07 138.03 98.88C137.69 99.68 137.2 100.73 136.95 101.21C136.71 101.69 136.09 102.7 135.59 103.45C135.1 104.2 134.21 105.33 133.64 105.96C133.06 106.6 131.62 107.96 130.45 109C129.27 110.03 127.69 111.35 126.93 111.93C126.18 112.51 124.89 113.38 124.08 113.86C123.26 114.35 122.63 114.81 122.68 114.89C122.72 114.97 123.53 115.03 124.46 115.04C126.15 115.04 126.18 115.03 127.41 114.21C128.09 113.75 129.5 112.64 130.52 111.75C131.55 110.85 133.21 109.32 134.21 108.34C135.26 107.31 136.54 105.79 137.26 104.72C137.94 103.7 138.89 102.03 139.37 101.02C139.85 100 140.47 98.47 140.75 97.61C141.03 96.75 141.39 95.4 141.56 94.59C141.76 93.66 141.88 92.12 141.88 90.31C141.89 88.76 141.79 87.18 141.68 86.81C141.56 86.43 141.5 86.06 141.55 85.98C141.6 85.9 142.05 86.02 142.56 86.24C143.07 86.46 144.45 87.12 145.62 87.71C146.8 88.3 147.89 88.9 148.05 89.03C148.21 89.17 149.25 89.84 150.36 90.53L152.38 91.77C152.16 93.13 151.85 94.49 151.54 95.66C151.24 96.84 150.73 98.59 150.41 99.56C150.09 100.52 149.61 101.9 149.33 102.62C149.06 103.35 148.32 104.97 147.7 106.22C147.08 107.48 146.15 109.21 145.63 110.07C145.12 110.92 144.18 112.39 143.55 113.33L142.41 115.03C143.09 115.79 143.38 115.98 143.48 115.95C143.59 115.91 143.68 115.71 143.68 115.5C143.68 115.14 143.91 115.13 150 115.08C153.48 115.06 156.39 115.1 156.47 115.18C156.55 115.26 156.75 116.59 156.91 118.15C157.07 119.7 157.29 121.19 157.4 121.45C157.51 121.72 157.66 121.87 157.74 121.78C157.82 121.7 158.41 120.17 159.05 118.38L160.22 115.13L166.15 115.03C167.31 112.54 168.05 110.81 168.53 109.58C169.02 108.35 169.7 106.51 170.04 105.49C170.38 104.48 171 102.33 171.41 100.73C171.81 99.12 172.33 96.75 172.55 95.47C172.76 94.19 173.03 92.5 173.14 91.72C173.26 90.95 173.44 88.76 173.56 86.86C173.69 84.93 173.73 81.89 173.66 80C173.59 78.12 173.37 75.23 173.16 73.57C172.95 71.91 172.64 69.81 172.47 68.9C172.31 67.99 171.95 66.33 171.68 65.2C171.41 64.08 170.83 62.02 170.4 60.63C169.96 59.24 169.28 57.22 168.87 56.15C168.46 55.08 167.85 53.59 167.51 52.84C167.16 52.1 166.69 51.04 166.45 50.51C166.21 49.97 165.36 48.35 164.56 46.91C163.75 45.46 162.58 43.49 161.96 42.53C161.33 41.57 160.07 39.77 159.15 38.54C158.24 37.31 156.89 35.6 156.16 34.74C155.43 33.89 153.85 32.19 152.66 30.97C151.46 29.75 149.65 28 148.64 27.09C147.62 26.19 145.56 24.52 144.07 23.4C142.57 22.28 140.25 20.69 138.91 19.86C137.57 19.03 135.56 17.87 134.44 17.27C133.31 16.67 131.34 15.71 130.06 15.13C128.77 14.55 126.74 13.71 125.54 13.26C124.33 12.82 122.01 12.07 120.38 11.6C118.75 11.12 116.1 10.47 114.49 10.15C112.89 9.83 110.53 9.42 109.24 9.24C107.66 9.03 105.06 8.9 101.17 8.86C98.01 8.82 94.64 8.86 93.68 8.95Z" />
		<path class="shp1" d="M90.37 11.89C89.62 11.98 88.95 12.13 88.87 12.21C88.8 12.29 88.38 13.76 87.93 15.47C87.49 17.19 87.01 19.07 86.87 19.66C86.73 20.25 86.3 21.93 85.92 23.41C85.53 24.88 85.21 26.21 85.21 26.37C85.21 26.62 85.42 26.64 86.43 26.54C87.1 26.47 87.82 26.35 88.04 26.28C88.3 26.18 88.53 25.77 88.76 24.94C88.95 24.28 89.13 23.75 89.15 23.75C89.18 23.75 90.45 23.61 91.97 23.45C93.5 23.29 94.83 23.21 94.94 23.26C95.05 23.31 95.36 23.79 95.62 24.33L96.11 25.3C98.45 25.12 99.2 25.01 99.29 24.94C99.38 24.87 98.82 23.59 98.04 22.09C97.27 20.59 96.35 18.84 96.01 18.2C95.67 17.56 94.76 15.83 94 14.35C92.81 12.07 92.54 11.68 92.17 11.7C91.93 11.72 91.12 11.8 90.37 11.89ZM108.85 12.07C108.53 12.17 107.92 12.54 107.5 12.89C107.08 13.24 106.58 13.88 106.39 14.31C106.2 14.73 106.04 15.46 106.04 15.91C106.03 16.37 106.18 17.06 106.37 17.45C106.56 17.85 107.03 18.44 107.41 18.77C107.8 19.1 109.05 19.83 110.19 20.39C111.48 21.03 112.37 21.59 112.55 21.9C112.71 22.16 112.8 22.56 112.74 22.77C112.69 22.99 112.41 23.31 112.11 23.49C111.7 23.74 111.34 23.79 110.51 23.69C109.92 23.61 109.09 23.39 108.66 23.18C108.23 22.97 107.49 22.4 107 21.91C106.52 21.42 106.07 21.04 106 21.07C105.93 21.1 105.47 21.49 104.98 21.95C104.49 22.4 104.08 22.84 104.08 22.92C104.08 23 104.46 23.46 104.94 23.94C105.41 24.42 106.35 25.09 107.03 25.42C107.71 25.75 108.79 26.13 109.44 26.27C110.08 26.4 111.08 26.48 111.67 26.44C112.3 26.39 113.15 26.16 113.72 25.87C114.43 25.51 114.84 25.12 115.27 24.42C115.6 23.86 115.88 23.09 115.93 22.58C115.97 22.1 115.91 21.4 115.8 21.02C115.67 20.62 115.19 19.98 114.63 19.46C114.1 18.98 112.72 18.11 111.57 17.52C110.34 16.89 109.39 16.27 109.26 16.02C109.09 15.68 109.12 15.49 109.39 15.1C109.68 14.67 109.87 14.6 110.75 14.6C111.41 14.6 112.12 14.76 112.74 15.05C113.28 15.3 114 15.78 114.35 16.12C114.7 16.46 115.05 16.74 115.13 16.74C115.21 16.74 115.71 16.36 116.25 15.88L117.22 15.02C116 13.75 115.03 13.1 114.2 12.7C112.94 12.1 112.52 12 111.09 11.94C110.18 11.91 109.17 11.97 108.85 12.07Z" />
		<path class="shp2" d="M90.93 15.78C90.82 16.04 90.47 17.28 90.16 18.53C89.85 19.79 89.64 20.86 89.69 20.92C89.74 20.98 90.62 20.93 91.63 20.81C92.65 20.69 93.54 20.54 93.62 20.47C93.69 20.4 93.26 19.32 92.65 18.07C92.04 16.82 91.45 15.69 91.34 15.56C91.19 15.37 91.09 15.43 90.93 15.78Z" />
		<path class="shp1" d="M71.11 17.31C70.47 17.52 69.5 17.99 68.97 18.35C68.4 18.73 67.75 19.41 67.42 19.97C67.09 20.52 66.8 21.3 66.75 21.8C66.71 22.28 66.78 22.98 66.93 23.36C67.07 23.73 67.39 24.32 67.64 24.67C67.9 25.04 68.44 25.43 68.92 25.61C69.56 25.85 70.15 25.9 71.5 25.81C72.46 25.74 73.95 25.64 74.81 25.58C75.94 25.51 76.43 25.55 76.61 25.73C76.75 25.87 76.86 26.25 76.85 26.57C76.84 26.96 76.63 27.35 76.21 27.74C75.82 28.11 75.18 28.43 74.51 28.6C73.93 28.75 73.18 28.88 72.86 28.91C72.54 28.93 71.86 28.83 71.35 28.68C70.62 28.47 70.41 28.47 70.35 28.66C70.3 28.79 70.17 29.21 70.05 29.59C69.93 29.96 69.84 30.51 69.84 30.8C69.84 31.28 69.94 31.36 70.72 31.53C71.2 31.64 72.03 31.73 72.57 31.73C73.1 31.73 74.04 31.58 74.66 31.41C75.27 31.24 76.3 30.82 76.93 30.49C77.56 30.15 78.41 29.48 78.83 29C79.28 28.47 79.66 27.78 79.78 27.25C79.92 26.63 79.92 26.09 79.76 25.4C79.64 24.87 79.33 24.14 79.07 23.79C78.81 23.45 78.31 22.99 77.97 22.78C77.62 22.57 76.9 22.34 76.36 22.28C75.83 22.22 74.78 22.27 74.03 22.39C73.28 22.51 72.14 22.65 71.5 22.7C70.55 22.78 70.27 22.73 69.98 22.44C69.79 22.25 69.64 21.94 69.64 21.75C69.65 21.56 69.89 21.16 70.18 20.85C70.52 20.51 71.17 20.16 71.89 19.95C72.75 19.7 73.36 19.65 74.22 19.75L75.39 19.88C75.94 17.83 75.99 17.36 75.86 17.23C75.75 17.12 74.9 17.01 73.97 16.98C72.72 16.95 71.97 17.03 71.11 17.31ZM137.35 23.94C136.87 24 135.98 24.29 135.36 24.58C134.74 24.87 133.84 25.52 133.35 26.03C132.86 26.54 132.2 27.48 131.89 28.13C131.57 28.79 131.27 29.8 131.2 30.46C131.12 31.15 131.17 32.03 131.3 32.6C131.43 33.14 131.72 33.97 131.96 34.44C132.2 34.92 132.83 35.76 133.37 36.3C133.9 36.84 134.86 37.53 135.51 37.84C136.15 38.14 137.11 38.44 137.65 38.49C138.18 38.55 139.08 38.49 139.64 38.37C140.2 38.25 140.71 38.06 140.76 37.95C140.81 37.85 140.61 37.26 140.31 36.64L139.76 35.52C137.82 35.62 136.99 35.55 136.67 35.43C136.35 35.3 135.84 34.97 135.54 34.68C135.23 34.39 134.83 33.85 134.63 33.48C134.44 33.1 134.22 32.49 134.14 32.12C134.05 31.66 134.12 31.05 134.36 30.27C134.62 29.41 134.95 28.86 135.6 28.2C136.22 27.57 136.81 27.2 137.61 26.94C138.59 26.62 138.85 26.6 139.6 26.81C140.08 26.95 140.77 27.25 141.14 27.49C141.5 27.73 142.03 28.28 142.31 28.71C142.66 29.26 142.81 29.75 142.8 30.36L142.8 31.24C144.31 31.62 144.97 31.73 145.23 31.73C145.68 31.73 145.72 31.66 145.72 30.8C145.72 30.29 145.6 29.44 145.44 28.9C145.28 28.37 144.89 27.56 144.56 27.1C144.24 26.65 143.55 25.94 143.04 25.54C142.54 25.13 141.64 24.62 141.05 24.4C140.46 24.17 139.59 23.96 139.11 23.91C138.62 23.86 137.84 23.88 137.35 23.94ZM55.64 27.03L54.57 27.97C58.31 32.31 59.58 33.78 59.81 34.04L60.21 34.5C59.01 34.3 57.08 33.89 55.16 33.47C53.23 33.04 51.35 32.61 50.97 32.5C50.6 32.4 50.14 32.32 49.95 32.31C49.76 32.31 49.13 32.73 48.53 33.23C47.94 33.74 47.46 34.22 47.46 34.31C47.47 34.39 48.15 35.22 48.98 36.16C49.81 37.1 51.01 38.48 51.65 39.22C52.29 39.97 52.91 40.68 53.01 40.79C53.12 40.9 53.95 41.85 54.86 42.89C55.77 43.93 56.56 44.78 56.61 44.78C56.67 44.78 57.19 44.35 57.78 43.83L58.85 42.88C57.95 41.83 56.63 40.32 55.35 38.85C54.07 37.39 53.06 36.15 53.11 36.11C53.17 36.07 53.69 36.17 54.28 36.32C54.87 36.47 55.96 36.73 56.71 36.88C57.46 37.04 59.39 37.48 60.99 37.86L63.91 38.54L64.83 37.66L63.62 33.77C58.49 27.81 56.94 26.08 56.86 26.09C56.78 26.09 56.23 26.52 55.64 27.03Z" />
		<path class="shp3" d="M98.54 30.39C96.29 30.45 93.84 30.61 93.09 30.73C92.34 30.86 91.6 30.99 91.44 31.04C91.28 31.09 90.75 31.18 90.27 31.24C89.79 31.31 88.57 31.58 87.55 31.84C86.53 32.1 84.52 32.72 83.07 33.21C81.63 33.71 79.97 34.33 79.38 34.59C78.79 34.86 77.65 35.38 76.85 35.75C76.05 36.11 75.43 36.45 75.49 36.49C75.54 36.53 76.33 36.94 77.24 37.4C78.15 37.85 79.2 38.51 79.57 38.86L80.25 39.5C82.51 38.52 84.09 37.94 85.21 37.56C86.34 37.19 87.3 36.87 87.35 36.84C87.41 36.82 87.25 36.49 87.01 36.11C86.77 35.73 86.62 35.34 86.67 35.23C86.73 35.12 87.49 34.52 88.38 33.9C89.26 33.28 90.33 32.61 90.76 32.41C91.42 32.11 91.6 32.09 91.93 32.31C92.14 32.45 92.8 32.83 93.39 33.14C93.97 33.46 94.94 34.04 95.53 34.42L96.6 35.12C101.19 35.03 103.64 35.14 105.25 35.31C106.8 35.48 108.86 35.78 109.82 35.99C110.79 36.19 112.28 36.55 113.13 36.78C113.99 37.01 115.39 37.45 116.25 37.76C117.1 38.06 118.37 38.55 119.07 38.84C119.76 39.13 121.03 39.71 121.89 40.14C122.74 40.57 124.19 41.36 125.1 41.91C126.01 42.45 127.54 43.46 128.5 44.16C129.46 44.85 131.13 46.18 132.2 47.1C133.27 48.03 134.49 49.18 134.92 49.66C135.45 50.25 136.3 50.84 137.55 51.48C138.57 52 140.27 52.95 141.34 53.59C142.41 54.23 143.79 55.09 144.41 55.5C145.02 55.91 145.61 56.25 145.72 56.25C145.83 56.25 145.68 55.88 145.4 55.42C145.12 54.97 144.51 54.03 144.06 53.33C143.6 52.64 142.69 51.37 142.03 50.51C141.37 49.65 139.89 47.95 138.75 46.73C137.61 45.51 135.93 43.88 135.02 43.11C134.11 42.34 132.53 41.08 131.52 40.31C130.5 39.54 129.6 38.92 129.52 38.92C129.44 38.92 129.09 38.72 128.75 38.47C128.4 38.22 127.32 37.56 126.36 37.01C125.4 36.46 123.52 35.52 122.18 34.92C120.84 34.32 118.83 33.52 117.7 33.14C116.58 32.77 114.87 32.25 113.91 32.01C112.95 31.76 111.28 31.38 110.21 31.17C109.14 30.95 107.44 30.69 106.42 30.57C105.4 30.46 104.13 30.35 103.6 30.32C103.06 30.29 100.79 30.32 98.54 30.39Z" />
		<path class="shp1" d="M96.77 35.26C96.73 35.35 96.8 35.46 96.94 35.5C97.07 35.54 98.1 36.25 99.22 37.09C100.35 37.93 101.69 39.01 102.22 39.5C103.17 40.39 103.17 40.39 105.52 40.73C106.82 40.92 108.54 41.21 109.34 41.37C110.14 41.53 111.41 41.8 112.16 41.98C112.91 42.15 114.62 42.59 115.95 42.96C117.29 43.32 119.65 44.04 121.21 44.56C122.76 45.08 125.08 45.91 126.36 46.41C127.65 46.91 128.96 47.44 129.28 47.59C129.6 47.73 130.65 48.2 131.61 48.63C132.58 49.07 133.8 49.63 134.34 49.9C134.87 50.16 135.36 50.33 135.41 50.29C135.46 50.25 135.2 49.9 134.82 49.51C134.45 49.13 133.27 48.05 132.2 47.11C131.13 46.18 129.46 44.85 128.5 44.16C127.54 43.46 126.01 42.45 125.1 41.91C124.19 41.36 122.74 40.57 121.89 40.14C121.03 39.71 119.76 39.13 119.07 38.84C118.37 38.55 117.1 38.06 116.25 37.76C115.39 37.45 113.99 37.01 113.13 36.78C112.28 36.55 110.79 36.19 109.82 35.99C108.86 35.78 106.8 35.48 105.25 35.32C103.7 35.15 101.17 35.04 99.64 35.06C98.1 35.08 96.81 35.18 96.77 35.26Z" />
		<path class="shp4" d="M90.9 36.06C90.73 36.24 90.8 36.46 91.23 36.98C91.54 37.36 91.97 38.01 92.19 38.44C92.42 38.87 92.71 39.92 92.84 40.78C93.03 42.1 93.02 42.71 92.72 44.86C92.53 46.26 92.26 48.1 92.13 48.95C91.99 49.81 91.89 51.52 91.92 52.75C91.95 54.4 92.06 55.24 92.33 55.95C92.54 56.48 93.16 57.42 93.73 58.04C94.29 58.66 94.68 59.21 94.6 59.25C94.52 59.3 94.06 59.25 93.58 59.14C93.1 59.04 92.37 58.76 91.97 58.52C91.57 58.29 91.24 58.01 91.25 57.91C91.25 57.78 91.02 57.77 90.62 57.86C90.27 57.95 89.37 58.32 88.62 58.69C87.87 59.06 87.08 59.47 86.87 59.6C86.66 59.74 86.01 60.2 85.42 60.63C84.82 61.05 83.87 61.89 83.31 62.48C82.74 63.07 81.89 64.12 81.42 64.81C80.95 65.51 80.35 66.61 80.09 67.25C79.83 67.89 79.5 68.92 79.35 69.54C79.2 70.16 79.04 70.66 78.99 70.66C78.93 70.66 78.57 70.33 78.18 69.93C77.79 69.52 77.17 68.71 76.79 68.12C76.42 67.53 75.97 66.57 75.8 65.98C75.62 65.39 75.48 64.22 75.48 63.35C75.48 62.3 75.61 61.42 75.88 60.63C76.09 59.99 76.27 59.35 76.27 59.22C76.27 59.03 75.99 59.04 75.05 59.28C74.38 59.44 73 59.95 71.99 60.4C70.98 60.85 69.95 61.37 69.7 61.55C69.31 61.86 69.26 62.06 69.26 63.4C69.26 64.37 69.38 65.23 69.6 65.8C69.79 66.29 70.24 67.08 70.61 67.56C70.97 68.03 71.69 68.74 72.21 69.15L73.15 69.88C72.74 71.61 72.42 72.64 72.17 73.28C71.92 73.92 71.32 75.15 70.84 76.01C70.36 76.86 69.26 78.61 68.39 79.9C67.53 81.18 66.41 82.89 65.91 83.69C65.41 84.5 64.73 85.77 64.38 86.52C64.04 87.27 63.59 88.45 63.39 89.14C63.14 90.02 63.02 91 63.03 92.31C63.03 93.35 62.99 94.21 62.94 94.21C62.88 94.21 62.5 93.7 62.09 93.09C61.68 92.47 61 91.7 60.59 91.38C60.17 91.05 59.61 90.69 59.34 90.57C59.07 90.44 58.55 90.25 58.17 90.13C57.8 90.01 57.27 89.92 57 89.92C56.74 89.92 56.17 90.08 55.74 90.28C55.31 90.49 54.71 90.95 54.4 91.31C54.1 91.67 53.71 92.23 53.55 92.55C53.38 92.87 53.13 93.57 52.99 94.11C52.84 94.64 52.73 95.45 52.73 95.91C52.72 96.36 52.81 96.95 52.92 97.22C53.06 97.58 53.04 97.82 52.84 98.15C52.68 98.39 52.38 99.13 52.15 99.8C51.93 100.47 51.75 101.39 51.75 101.84C51.74 102.3 51.87 102.98 52.02 103.35C52.18 103.73 52.55 104.27 52.85 104.56C53.16 104.85 53.75 105.23 54.18 105.42C54.78 105.67 55.58 105.76 57.59 105.78L60.21 105.81C62.78 107.11 63.92 107.71 64.4 107.99C65.04 108.36 65.64 108.51 66.63 108.58C67.69 108.64 68.17 108.58 68.77 108.3C69.2 108.1 70.23 107.56 71.06 107.11C71.89 106.65 73.12 106.05 73.78 105.78C74.52 105.49 75.38 105.29 75.97 105.3C76.59 105.3 77.26 105.46 77.82 105.74C78.44 106.05 78.81 106.4 79.07 106.95C79.28 107.38 79.49 108.17 79.54 108.71C79.62 109.51 79.52 109.91 79.02 110.99C78.68 111.72 78.02 112.72 77.55 113.23C77.09 113.74 76.19 114.43 75.56 114.77C74.93 115.12 73.72 115.59 72.86 115.82C71.49 116.2 70.99 116.24 68.68 116.15C66.64 116.06 65.67 115.93 64.35 115.54C63.41 115.26 62.05 114.74 61.33 114.38C60.61 114.03 59.65 113.5 59.19 113.22C58.72 112.92 58.32 112.78 58.27 112.89C58.21 113 58.21 113.33 58.26 113.62C58.31 113.92 58.73 114.51 59.19 114.94C59.65 115.38 60.41 115.96 60.89 116.24C61.38 116.52 62.51 116.98 63.42 117.25C64.33 117.53 66 117.84 67.12 117.95C68.4 118.07 69.78 118.07 70.82 117.96C71.73 117.86 73 117.65 73.64 117.48C74.28 117.31 75.37 116.89 76.07 116.54C76.77 116.2 77.73 115.52 78.21 115.04C78.8 114.45 79.29 113.69 79.67 112.75C80.22 111.43 80.31 111.31 81.13 111C81.61 110.82 82.3 110.4 82.67 110.08C83.03 109.75 83.52 109.18 83.75 108.8C83.98 108.43 84.31 107.68 84.48 107.15C84.66 106.61 84.94 104.95 85.12 103.45C85.3 101.95 85.62 100.2 85.82 99.56C86.02 98.92 86.43 98.06 86.72 97.65C87.02 97.25 87.32 96.92 87.4 96.92C87.48 96.93 87.83 97.35 88.18 97.85C88.52 98.36 89.29 99.35 89.89 100.04C90.49 100.74 91.76 101.93 92.72 102.69C93.67 103.45 94.85 104.33 95.33 104.63C95.81 104.94 96.43 105.31 96.69 105.46C96.96 105.61 97.92 106.1 98.83 106.57C99.74 107.03 101.6 107.81 102.97 108.3C104.33 108.79 106.08 109.29 106.86 109.41L108.27 109.64C112.49 107.62 114.81 106.38 116.15 105.58C117.49 104.78 119.54 103.41 120.72 102.54C121.9 101.67 123.91 99.89 125.2 98.6C126.61 97.19 127.98 95.59 128.63 94.59C129.23 93.68 129.89 92.59 130.11 92.16C130.33 91.73 130.73 90.68 131.02 89.83C131.32 88.91 131.58 87.53 131.67 86.46C131.76 85.27 131.73 84.31 131.58 83.64C131.45 83.08 131.11 82.05 130.81 81.36C130.51 80.66 129.87 79.39 129.38 78.54C128.89 77.68 128.06 76.37 127.54 75.62C127.03 74.87 125.77 73.2 124.74 71.92C123.72 70.63 121.34 68.05 119.46 66.17C117.59 64.3 115.22 62.1 114.2 61.29C113.19 60.47 111.83 59.45 111.19 59C110.54 58.55 109.93 58.19 109.82 58.19C109.72 58.2 109.46 58.56 109.24 59C109.03 59.44 108.55 60.05 108.17 60.35C107.8 60.64 107.07 61.07 106.57 61.29C106.06 61.52 105.2 61.77 104.67 61.85C104.13 61.93 103.69 61.93 103.69 61.85C103.7 61.77 104.05 61.28 104.49 60.78C104.92 60.27 105.57 59.24 105.93 58.49C106.28 57.74 106.67 56.67 106.79 56.1C106.91 55.54 107 54.67 107.01 54.16C107.01 53.65 106.84 52.58 106.64 51.77C106.44 50.97 105.99 49.74 105.64 49.05C105.29 48.35 104.61 47.18 104.11 46.44C103.62 45.7 102.29 44.15 101.17 43C100.04 41.86 98.51 40.44 97.76 39.86C97.01 39.27 95.83 38.4 95.14 37.93C94.44 37.45 93.41 36.78 92.85 36.44C92.29 36.09 91.67 35.81 91.48 35.81C91.29 35.81 91.03 35.92 90.9 36.06Z" />
		<path class="shp1" d="M148.38 40.39C144.48 43.31 142.85 44.65 142.95 44.82C143.03 44.96 143.4 45.49 143.77 45.98C144.15 46.48 144.52 46.9 144.6 46.9C144.68 46.9 147.2 45.07 150.19 42.82C153.19 40.57 155.64 38.62 155.64 38.49C155.63 38.36 155.28 37.79 154.86 37.22C154.43 36.66 154.06 36.2 154.02 36.2C153.99 36.2 151.45 38.09 148.38 40.39Z" />
		<path class="shp4" d="M68.54 39.17C68.95 40.48 69.45 41.95 69.65 42.43C69.84 42.91 70.26 43.7 70.58 44.18C70.9 44.66 71.48 45.34 71.86 45.69C72.25 46.04 72.7 46.32 72.86 46.32C73.02 46.32 73.83 46.06 74.66 45.74C75.49 45.42 76.23 45.15 76.31 45.16C76.39 45.16 76.85 44.98 77.33 44.77L78.21 44.38C77.53 43.15 76.85 42.38 76.26 41.87C75.68 41.37 74.76 40.68 74.22 40.35C73.69 40.03 72.44 39.31 71.45 38.76C70.46 38.21 69.61 37.76 69.55 37.76C69.5 37.76 69.17 37.54 68.82 37.28C68.48 37.01 68.1 36.8 67.98 36.79C67.87 36.79 68.12 37.85 68.54 39.17Z" />
		<path class="shp1" d="M85.12 37.59C83.83 38.03 82.23 38.64 81.57 38.95L80.35 39.51C81.48 40.86 81.98 41.25 82.2 41.26C82.41 41.26 83.38 41.13 84.34 40.97C85.3 40.81 86.75 40.61 87.55 40.53C88.96 40.39 89.01 40.37 88.94 39.9C88.9 39.63 88.57 38.82 88.21 38.1C87.85 37.38 87.53 36.79 87.5 36.79C87.47 36.79 86.4 37.15 85.12 37.59Z" />
		<path class="shp3" d="M63.17 45.59C61.75 47.01 59.89 49.09 59.03 50.22C58.17 51.34 57.03 52.92 56.49 53.72C55.95 54.52 55.22 55.71 54.87 56.35C54.52 56.99 53.81 58.35 53.29 59.36C52.78 60.38 52.14 61.7 51.88 62.28C51.63 62.87 51.02 64.54 50.53 65.98C50.04 67.43 49.46 69.4 49.22 70.36C48.99 71.33 48.67 72.86 48.51 73.77C48.36 74.68 48.14 76.04 48.04 76.78C47.94 77.53 47.81 79.9 47.76 82.04C47.7 84.72 47.76 86.57 47.94 87.98C48.09 89.1 48.32 90.72 48.45 91.58C48.58 92.43 48.74 93.2 48.81 93.28C48.87 93.36 49.05 93.05 49.19 92.6C49.33 92.14 49.74 91.25 50.09 90.6C50.45 89.96 51.12 89.08 51.58 88.64C52.05 88.21 52.52 87.82 52.64 87.77C52.78 87.71 52.79 87.03 52.65 85.54C52.53 84.09 52.54 82.28 52.69 79.9C52.82 77.76 53.1 75.41 53.41 73.87C53.68 72.47 54.03 70.94 54.17 70.46C54.31 69.98 54.62 68.99 54.84 68.27C55.07 67.55 55.57 66.15 55.96 65.16C56.35 64.17 57.06 62.57 57.54 61.6C58.01 60.64 58.94 58.98 59.59 57.91C60.24 56.83 61.33 55.24 62 54.35C62.68 53.47 63.19 52.66 63.13 52.55C63.08 52.45 62.79 52.36 62.5 52.36C62.21 52.36 61.68 52.3 61.33 52.21C60.98 52.13 60.69 51.98 60.7 51.87C60.7 51.76 61.38 51.06 62.21 50.3C63.04 49.54 64.24 48.52 64.88 48.04C65.53 47.55 66.36 47 66.73 46.81C67.11 46.62 67.46 46.44 67.51 46.4C67.56 46.36 67.37 45.87 67.09 45.31C66.81 44.74 66.46 43.99 66.31 43.64C66.17 43.29 65.98 43 65.9 43.01C65.82 43.01 64.59 44.18 63.17 45.59Z" />
		<path class="shp1" d="M95.52 44.43C95.52 44.45 96.53 45.83 97.76 47.49C98.99 49.15 100.28 51.08 100.62 51.77C101.01 52.56 101.28 53.44 101.33 54.11C101.4 54.98 101.33 55.34 100.95 56.02C100.7 56.48 100.16 57.07 99.76 57.33C99.19 57.7 98.94 57.76 98.64 57.61C98.38 57.48 98.22 57.48 98.15 57.61C98.1 57.72 98.38 57.99 98.78 58.21C99.19 58.44 100 58.73 100.58 58.87C101.48 59.08 101.76 59.08 102.29 58.86C102.75 58.66 103.05 58.31 103.4 57.56C103.76 56.82 103.89 56.22 103.89 55.33C103.89 54.65 103.75 53.74 103.57 53.28C103.39 52.83 102.87 51.89 102.41 51.19C101.95 50.49 101.02 49.36 100.35 48.66C99.68 47.96 98.4 46.72 97.52 45.89C96.64 45.06 95.83 44.38 95.72 44.38C95.61 44.38 95.52 44.4 95.52 44.43Z" />
		<path class="shp0" d="M89.2 45.28C88.99 45.32 88.29 45.46 87.65 45.57C87 45.69 85.82 45.97 85.02 46.18C84.22 46.39 82.77 46.91 81.81 47.32C80.85 47.74 79.45 48.45 78.7 48.9C77.87 49.4 76.48 50.57 75.18 51.87C73.92 53.11 72.56 54.7 71.92 55.67C71.32 56.58 70.83 57.43 70.82 57.56C70.82 57.7 70.9 57.81 71.01 57.81C71.12 57.81 71.97 57.38 72.91 56.85C73.84 56.32 75.53 55.45 76.65 54.92C77.78 54.38 79.22 53.77 79.86 53.56C80.51 53.35 81.82 53.03 82.78 52.85C83.75 52.67 85.8 52.46 87.34 52.39L90.15 52.26C90.37 51.36 90.4 51.01 90.36 50.9C90.31 50.79 89.99 50.65 89.64 50.58C89.29 50.51 88.04 50.53 86.87 50.63C85.69 50.73 84.03 50.94 83.17 51.09C82.32 51.25 81.22 51.51 80.74 51.68C80.26 51.84 79.71 51.97 79.52 51.97C79.33 51.97 79.22 51.86 79.28 51.73C79.33 51.59 79.74 51.26 80.2 51C80.66 50.73 81.56 50.28 82.2 50C82.84 49.72 84.29 49.26 85.41 48.98C86.53 48.7 88.2 48.38 89.11 48.27C90.01 48.16 90.78 48.04 90.8 48.02C90.83 48 90.98 47.5 91.14 46.91C91.3 46.32 91.44 45.68 91.44 45.5C91.44 45.22 91.28 45.16 90.52 45.18C90.01 45.19 89.42 45.24 89.2 45.28Z" />
		<path class="shp1" d="M159.68 46.25C158.89 46.64 158.77 46.78 158.88 47.15C158.94 47.39 159.15 47.9 159.34 48.27C159.53 48.65 159.82 49.28 160 49.68L160.31 50.41C157.82 51.59 155.53 52.65 153.6 53.53C151.67 54.4 150.07 55.13 150.05 55.15C150.02 55.17 150.26 55.77 150.58 56.49C150.9 57.22 151.25 57.81 151.36 57.81C151.47 57.81 152.63 57.32 153.94 56.72C155.25 56.12 156.98 55.32 157.78 54.95C158.58 54.58 159.77 54.06 160.41 53.79C161.05 53.53 161.59 53.34 161.61 53.37C161.63 53.4 162 54.19 162.44 55.13C162.87 56.07 163.3 56.84 163.38 56.84C163.46 56.84 163.98 56.64 164.54 56.4C165.1 56.16 165.56 55.85 165.56 55.72C165.56 55.58 165.2 54.71 164.77 53.77C164.33 52.83 163.68 51.41 163.33 50.61C162.98 49.8 162.41 48.53 162.08 47.78C161.74 47.03 161.39 46.29 161.3 46.13C161.22 45.97 161.02 45.82 160.87 45.81C160.73 45.79 160.19 45.99 159.68 46.25Z" />
		<path class="shp0" d="M106.42 46.18C106.42 46.31 106.73 46.86 107.12 47.39C107.5 47.93 108.11 48.96 108.48 49.68C108.85 50.4 109.31 51.63 109.52 52.41C109.73 53.18 109.95 54.17 110.02 54.6C110.14 55.35 110.19 55.4 111.83 56.18C112.76 56.62 114.35 57.49 115.37 58.1C116.39 58.72 117.96 59.73 118.87 60.35C119.78 60.98 121.49 62.26 122.67 63.2C123.84 64.14 125.95 66.05 127.34 67.44C128.74 68.83 130.52 70.72 131.31 71.63C132.09 72.54 132.93 73.5 133.15 73.77C133.38 74.04 134.27 75.12 135.12 76.17C136.54 77.92 136.69 78.06 136.92 77.73C137.08 77.49 137.16 76.65 137.16 75.23C137.16 73.92 137.01 72.4 136.79 71.34C136.59 70.37 136.2 69.1 135.92 68.51C135.63 67.92 135.4 67.33 135.41 67.2C135.41 67.07 135.47 66.96 135.55 66.95C135.63 66.95 136.88 67.35 138.33 67.84C139.77 68.33 141.02 68.66 141.1 68.57C141.17 68.49 140.82 67.94 140.32 67.36C139.81 66.78 138.39 65.38 137.16 64.26C135.93 63.13 133.96 61.5 132.78 60.62C131.61 59.75 129.83 58.49 128.84 57.83C127.85 57.18 126.96 56.64 126.85 56.64C126.74 56.64 126.65 56.46 126.65 56.25C126.65 55.92 126.82 55.84 127.77 55.74C128.39 55.68 129 55.59 129.13 55.55C129.27 55.51 129.38 55.36 129.38 55.23C129.39 55.09 128.49 54.45 127.39 53.79C126.29 53.13 124.47 52.12 123.35 51.53C122.22 50.95 120.12 49.98 118.68 49.38C117.23 48.78 114.82 47.93 113.33 47.5C111.83 47.06 109.75 46.53 108.71 46.32C107.66 46.11 106.72 45.93 106.61 45.93C106.51 45.93 106.42 46.04 106.42 46.18Z" />
		<path class="shp1" d="M37.94 48.71C37.48 49.51 37.11 50.27 37.13 50.39C37.14 50.51 39.28 53.15 41.88 56.25C44.96 59.94 46.66 61.84 46.79 61.72C46.9 61.61 47.29 60.97 47.67 60.28L48.35 59.03L46.71 57.13C48.18 54.41 48.81 53.25 49.06 52.79L49.51 51.95L52.22 52.07C53.37 49.95 53.7 49.32 53.7 49.29C53.7 49.27 53.11 49.16 52.38 49.05C51.66 48.95 49.76 48.67 48.15 48.45C46.55 48.22 44.31 47.91 43.19 47.76C42.07 47.6 40.62 47.43 39.97 47.36L38.79 47.25L37.94 48.71Z" />
		<path class="shp2" d="M40.99 50.51C40.91 50.56 41.69 51.57 42.7 52.75C44.29 54.59 44.6 54.85 44.86 54.64C45.03 54.51 45.52 53.74 45.95 52.94C46.37 52.14 46.65 51.42 46.56 51.35C46.47 51.28 45.31 51.04 43.97 50.82C42.63 50.59 41.44 50.41 41.33 50.41C41.21 50.41 41.06 50.46 40.99 50.51Z" />
		<path class="shp1" d="M63.13 52.53C63.19 52.65 62.68 53.47 62 54.35C61.33 55.24 60.24 56.83 59.59 57.91C58.94 58.98 58.01 60.64 57.54 61.6C57.06 62.57 56.35 64.17 55.96 65.16C55.57 66.15 55.07 67.55 54.84 68.27C54.62 68.99 54.31 69.98 54.17 70.46C54.03 70.94 53.69 72.43 53.43 73.77C53.16 75.11 52.84 77.56 52.71 79.22C52.58 80.95 52.54 83.31 52.61 84.77C52.69 86.16 52.8 87.36 52.88 87.44C52.95 87.52 53.5 87.4 54.09 87.17C54.81 86.9 55.65 86.76 56.71 86.74C57.57 86.73 58.6 86.78 59 86.86C59.6 86.98 59.75 86.94 59.86 86.66C59.93 86.48 60.44 85.53 60.99 84.57C61.54 83.61 62.11 82.51 62.25 82.14C62.41 81.72 62.47 81.15 62.39 80.68C62.33 80.25 62 79.07 61.68 78.05C61.35 77.03 60.99 75.63 60.88 74.94C60.74 74.06 60.74 73.29 60.89 72.41C61.02 71.62 61.31 70.79 61.68 70.22L62.26 69.29C61.44 67.03 61.19 65.88 61.14 65.01C61.08 64.17 61.15 63.05 61.29 62.38C61.43 61.74 61.77 60.64 62.05 59.95C62.33 59.25 63.05 57.94 63.66 57.03C64.27 56.12 65.29 54.78 65.94 54.06L67.12 52.75C65.99 52.61 65.07 52.52 64.35 52.45C63.43 52.36 63.06 52.39 63.13 52.53Z" />
		<path class="shp2" d="M109.15 60.4L108.15 61.41C110.35 62.98 111.53 63.85 112.19 64.37C112.85 64.88 114.07 65.87 114.91 66.55C115.75 67.24 117.21 68.51 118.15 69.38C119.08 70.24 120.72 71.91 121.77 73.09C122.83 74.26 124.21 75.88 124.84 76.69C125.47 77.49 126.39 78.76 126.87 79.51C127.36 80.26 128.04 81.38 128.38 81.99C128.71 82.61 129.06 83.11 129.15 83.11C129.24 83.11 129.37 83.05 129.43 82.96C129.5 82.88 129.39 82.38 129.2 81.85C129 81.31 128.56 80.35 128.21 79.7C127.85 79.06 127.47 78.36 127.35 78.15C127.24 77.93 126.59 76.95 125.92 75.96C125.26 74.97 123.77 73.04 122.62 71.68C121.48 70.31 119.27 67.92 117.71 66.37C116.15 64.82 113.81 62.61 112.51 61.47L110.15 59.39L109.15 60.4Z" />
		<path class="shp3" d="M143.38 61.65C143.64 61.84 144.78 62.79 145.91 63.76C147.04 64.73 148.64 66.26 149.47 67.17C150.55 68.35 150.97 68.7 150.97 68.42C150.97 68.2 150.61 66.98 150.17 65.69C149.73 64.41 149.3 63.27 149.22 63.16C149.13 63.05 148.68 62.86 148.22 62.73C147.75 62.59 146.63 62.28 145.72 62.02C144.81 61.77 143.8 61.5 143.48 61.44L142.9 61.31L143.38 61.65Z" />
		<path class="shp1" d="M32.04 63.65C31.99 63.81 31.85 64.46 31.73 65.11C31.61 65.75 31.51 66.45 31.51 66.66C31.51 66.88 32.31 68.02 33.29 69.19C34.26 70.37 35.32 71.64 35.64 72.02C36.03 72.48 36.14 72.72 35.96 72.76C35.82 72.79 35.22 72.73 34.63 72.61C34.04 72.5 32.9 72.28 32.1 72.12C31.3 71.95 30.58 71.82 30.5 71.82C30.42 71.82 30.22 72.43 30.06 73.18C29.9 73.93 29.76 74.57 29.76 74.6C29.76 74.62 30 74.71 30.3 74.78C30.59 74.85 32.76 75.32 35.12 75.81C37.47 76.3 40.32 76.88 41.44 77.1C42.56 77.32 43.5 77.47 43.53 77.43C43.56 77.4 43.69 76.78 43.82 76.07C43.96 75.35 44.02 74.72 43.97 74.66C43.92 74.6 43 74.37 41.93 74.15C40.31 73.82 39.91 73.67 39.54 73.23C39.3 72.94 39.1 72.61 39.1 72.5C39.1 72.4 40.39 71.7 41.97 70.96C43.55 70.22 44.94 69.52 45.06 69.4C45.17 69.29 45.41 68.49 45.59 67.64C45.76 66.78 45.86 66.04 45.8 65.98C45.74 65.93 43.93 66.78 41.77 67.88C39.61 68.97 37.71 69.87 37.55 69.87C37.39 69.86 36.36 68.7 35.27 67.29C34.18 65.87 33.03 64.41 32.71 64.04C32.28 63.53 32.11 63.43 32.04 63.65ZM164.65 66.72L161.1 69.97C156.95 70.67 155.65 70.94 155.55 71.03C155.43 71.13 155.46 71.64 155.65 72.48C155.9 73.61 155.99 73.77 156.37 73.77C156.61 73.77 157.84 73.59 159.1 73.38C161.14 73.03 161.46 73.01 162.16 73.26C162.59 73.42 163.77 73.91 164.79 74.35C165.8 74.8 166.9 75.28 167.22 75.42C167.54 75.56 168.41 75.95 169.16 76.28C169.91 76.61 170.54 76.86 170.56 76.84C170.58 76.81 170.51 76.13 170.39 75.33C170.28 74.52 170.09 73.76 169.97 73.64C169.85 73.51 168.57 72.92 167.12 72.32C165.68 71.71 164.43 71.16 164.34 71.08C164.26 71.01 165.24 70.03 166.52 68.9C168.29 67.34 168.85 66.74 168.86 66.37C168.86 66.1 168.78 65.34 168.68 64.67C168.57 64 168.42 63.46 168.34 63.46C168.26 63.47 166.6 64.93 164.65 66.72Z" />
		<path class="shp2" d="M66.95 66.13C66.85 66.32 66.62 66.99 66.44 67.64C66.22 68.39 66.14 69.11 66.22 69.68C66.28 70.16 66.48 70.91 66.66 71.34C66.83 71.76 67.16 72.36 67.39 72.65C67.62 72.95 67.91 73.19 68.04 73.19C68.18 73.19 68.29 73.27 68.29 73.38C68.29 73.49 68.59 73.73 68.96 73.91C69.34 74.1 69.69 74.19 69.74 74.11C69.8 74.03 69.53 73.5 69.16 72.94C68.78 72.38 68.42 71.61 68.36 71.24C68.3 70.85 68.36 70.31 68.51 69.98C68.66 69.66 68.95 69.25 69.16 69.06C69.55 68.73 69.55 68.72 68.92 68.03C68.57 67.66 68.11 66.99 67.9 66.57C67.68 66.14 67.42 65.79 67.32 65.79C67.22 65.79 67.05 65.94 66.95 66.13Z" />
		<path class="shp1" d="M94.6 68.04C94.04 68.19 93.21 68.51 92.75 68.73C92.3 68.96 91.01 69.74 89.88 70.46C88.76 71.18 87.45 71.97 86.96 72.21C86.48 72.45 85.7 72.77 85.21 72.92C84.73 73.06 83.79 73.18 83.12 73.18C82.45 73.18 81.9 73.25 81.9 73.33C81.9 73.41 82.42 73.7 83.07 73.96C84.15 74.4 84.27 74.51 84.37 75.13C84.43 75.51 84.42 76.29 84.35 76.88C84.27 77.47 83.95 78.74 83.62 79.7C83.3 80.67 82.67 82.18 82.23 83.07C81.78 83.95 81.49 84.72 81.57 84.77C81.65 84.82 81.98 84.58 82.3 84.23C82.62 83.88 83.16 83.07 83.5 82.43C83.83 81.79 84.34 80.91 84.63 80.48C84.92 80.05 85.39 79.55 85.67 79.36C85.95 79.18 87 78.89 87.99 78.73C88.98 78.58 90.36 78.3 91.05 78.12C91.75 77.93 92.71 77.55 93.19 77.27C93.67 76.99 94.31 76.41 94.61 75.99C95.02 75.41 95.18 74.92 95.26 73.96C95.35 72.92 95.28 72.43 94.87 71.19C94.45 69.95 94.4 69.62 94.6 69.36C94.73 69.19 95.26 68.84 95.77 68.59C96.28 68.33 96.69 68.04 96.69 67.93C96.69 67.82 96.45 67.74 96.16 67.75C95.86 67.75 95.16 67.89 94.6 68.04Z" />
		<path class="shp0" d="M69.35 69.92C69.17 70.16 69.04 70.62 69.05 70.94C69.06 71.26 69.24 71.81 69.46 72.16C69.67 72.51 70.04 72.85 70.28 72.91C70.59 73 70.8 72.92 70.97 72.67C71.1 72.47 71.21 72.24 71.21 72.16C71.21 72.08 70.97 71.91 70.67 71.77C70.35 71.62 70.14 71.37 70.14 71.14C70.14 70.88 70.28 70.73 70.57 70.7C70.81 70.68 71.01 70.54 71.02 70.41C71.02 70.28 70.87 70.02 70.68 69.83C70.49 69.65 70.18 69.49 70 69.49C69.82 69.49 69.52 69.68 69.35 69.92Z" />
		<path class="shp2" d="M92.12 71.11C91.69 71.47 90.73 72.13 89.98 72.58C89.23 73.03 88.18 73.52 87.65 73.68C87.11 73.84 86.48 73.97 86.24 73.96C85.81 73.96 85.8 74.01 85.85 75.83C85.87 76.86 85.96 77.73 86.04 77.78C86.12 77.82 86.78 77.76 87.5 77.65C88.22 77.53 89.08 77.4 89.4 77.36C89.72 77.31 90.14 77.17 90.34 77.03C90.68 76.8 90.69 76.75 90.39 76.15C90.22 75.8 90.08 75.15 90.07 74.69C90.07 74.11 90.24 73.6 90.64 72.95C91.04 72.31 91.46 71.93 92.05 71.66C92.52 71.45 93.05 71.23 93.24 71.16C93.43 71.1 93.58 70.91 93.58 70.75C93.58 70.59 93.43 70.46 93.24 70.46C93.05 70.47 92.55 70.76 92.12 71.11Z" />
		<path class="shp4" d="M64.76 71.75C64.59 72.27 64.49 73.09 64.53 73.57C64.57 74.06 64.74 74.89 64.92 75.42C65.09 75.96 65.44 76.86 65.69 77.42C65.94 77.98 66.15 78.55 66.14 78.68C66.14 78.82 66.25 79.03 66.39 79.16C66.58 79.35 66.86 79.07 67.75 77.8C68.37 76.92 68.85 76.14 68.82 76.07C68.8 76 68.37 75.52 67.89 75C67.4 74.48 66.67 73.58 66.27 72.99C65.87 72.4 65.55 71.83 65.55 71.72C65.55 71.62 65.44 71.37 65.31 71.17C65.09 70.84 65.04 70.9 64.76 71.75Z" />
		<path class="shp1" d="M105.06 71.53C105.06 71.69 105.33 72.98 105.66 74.4C106 75.82 106.31 77.72 106.37 78.63C106.44 79.65 106.38 80.7 106.23 81.36C106.09 81.95 105.67 83.04 105.28 83.79C104.87 84.59 104.09 85.65 103.41 86.33C102.76 86.98 101.62 87.87 100.88 88.32C100.13 88.77 98.2 89.72 96.6 90.42C94.99 91.13 93.07 92.08 92.33 92.52C91.58 92.97 90.58 93.69 90.09 94.14C89.6 94.58 89.25 95 89.3 95.06C89.35 95.13 89.79 94.96 90.27 94.7C90.75 94.43 91.76 94.04 92.51 93.82C93.26 93.61 94.57 93.29 95.43 93.13C96.28 92.96 97.55 92.69 98.25 92.52L99.51 92.22C100.8 93.68 101.55 94.85 102.01 95.76C102.46 96.67 103.1 98.31 103.41 99.41C103.75 100.57 104.09 101.41 104.23 101.41C104.41 101.41 104.45 101.11 104.36 100.29C104.3 99.67 104.08 98.12 103.87 96.83C103.66 95.55 103.23 93.71 102.9 92.75C102.58 91.78 102.34 90.98 102.37 90.97C102.41 90.96 102.78 90.79 103.21 90.59C103.64 90.4 104.57 89.66 105.27 88.96C105.98 88.26 106.75 87.31 106.98 86.86C107.2 86.4 107.52 86.03 107.68 86.03C107.85 86.03 108.83 86.93 109.87 88.04C110.92 89.14 112.53 91.05 113.45 92.27C114.37 93.5 115.97 95.79 117 97.37C118.03 98.95 118.96 100.24 119.07 100.24C119.17 100.24 119.26 100.2 119.26 100.14C119.26 100.09 119.14 99.76 118.98 99.41C118.83 99.06 118.16 97.51 117.5 95.96C116.83 94.4 115.88 92.3 115.39 91.29C114.89 90.27 114.07 88.74 113.56 87.88C113.05 87.02 112.18 85.71 111.62 84.97C111.06 84.22 110.2 83.17 109.72 82.63C108.9 81.73 108.81 81.53 108.59 80.09C108.46 79.24 108.1 77.79 107.79 76.88C107.49 75.97 106.83 74.33 106.34 73.23C105.85 72.14 105.36 71.24 105.26 71.24C105.15 71.24 105.06 71.37 105.06 71.53Z" />
		<path class="shp0" d="M92.32 72.37C91.99 72.56 91.54 73.11 91.3 73.58C91.06 74.06 90.86 74.62 90.85 74.84C90.84 75.05 91 75.44 91.19 75.7C91.42 76.01 91.65 76.12 91.88 76.04C92.06 75.97 92.26 75.78 92.32 75.62C92.37 75.46 92.28 75.19 92.12 75.03C91.96 74.87 91.83 74.54 91.83 74.3C91.84 74.06 91.97 73.71 92.13 73.52C92.37 73.24 92.48 73.22 92.8 73.43C93.09 73.61 93.28 73.62 93.53 73.46C93.72 73.34 93.9 73.08 93.94 72.88C93.98 72.69 93.85 72.41 93.65 72.27C93.45 72.13 93.2 72.01 93.09 72.01C92.99 72.02 92.64 72.18 92.32 72.37Z" />
		<path class="shp3" d="M146.91 75.85C146.9 75.93 147.37 76.75 147.97 77.66C148.56 78.57 149.56 80.37 150.19 81.65C150.81 82.94 151.49 84.38 151.7 84.86C151.91 85.34 152.25 86.21 152.45 86.79C152.81 87.8 152.83 87.82 152.94 87.28C153.01 86.97 153.08 85.35 153.09 83.69C153.1 82.04 153.06 80.02 153 79.22L152.88 77.76C149.37 76.73 148.21 76.33 148.05 76.2C147.89 76.06 147.57 75.9 147.34 75.82C147.11 75.75 146.92 75.76 146.91 75.85Z" />
		<path class="shp4" d="M17.19 80.09C17.19 81.16 17.22 81.56 17.26 80.97C17.3 80.38 17.3 79.51 17.26 79.02C17.22 78.54 17.19 79.02 17.19 80.09Z" />
		<path class="shp2" d="M109.42 79.16C109.35 79.35 109.39 79.86 109.52 80.29C109.66 80.72 110.13 81.55 110.57 82.14C111.02 82.73 111.56 83.47 111.78 83.79C112 84.11 112.75 85.3 113.46 86.42C114.16 87.54 115.22 89.38 115.82 90.51C116.41 91.63 117.08 93.05 117.3 93.67C117.55 94.36 117.82 94.79 118 94.79C118.16 94.79 118.29 94.7 118.29 94.59C118.29 94.49 117.93 93.33 117.5 92.02C117.07 90.7 116.35 88.89 115.9 87.98C115.45 87.07 114.57 85.49 113.94 84.47C113.32 83.46 112.13 81.8 111.31 80.8C110.49 79.79 109.76 78.94 109.69 78.89C109.62 78.84 109.5 78.96 109.42 79.16Z" />
		<path class="shp0" d="M133.97 79.4C133.91 79.52 134.19 80.24 134.61 81.02C135.03 81.79 135.64 83.22 135.97 84.18C136.3 85.14 136.68 86.72 136.81 87.68C136.99 89.04 136.99 89.83 136.81 91.19C136.69 92.15 136.4 93.42 136.17 94.01C135.95 94.6 135.58 95.48 135.36 95.96C135.14 96.44 134.57 97.49 134.1 98.29C133.62 99.1 132.64 100.54 131.91 101.5C131.18 102.47 129.52 104.28 128.23 105.54C126.93 106.8 125.02 108.46 123.98 109.23C122.94 110 121.38 111.07 120.53 111.61C119.67 112.15 118.14 113.04 117.12 113.57C116.11 114.11 115.27 114.63 115.27 114.74C115.27 114.86 116.63 114.95 118.87 114.98C120.85 115.01 122.51 114.96 122.57 114.86C122.62 114.77 123.37 114.28 124.22 113.76C125.08 113.25 126.35 112.39 127.04 111.85C127.74 111.31 129.27 110.03 130.45 108.99C131.62 107.96 133.06 106.6 133.64 105.96C134.21 105.33 135.1 104.2 135.59 103.45C136.09 102.7 136.71 101.69 136.95 101.21C137.2 100.73 137.69 99.68 138.03 98.88C138.37 98.07 138.91 96.45 139.21 95.28C139.7 93.39 139.77 92.8 139.77 90.31C139.76 88.04 139.68 87.18 139.34 85.88C139.1 85 138.82 84.17 138.71 84.04C138.6 83.9 138.18 83.27 137.78 82.62C137.37 81.98 136.63 81.11 136.12 80.68C135.61 80.25 134.94 79.74 134.64 79.55C134.29 79.32 134.05 79.27 133.97 79.4Z" />
		<path class="shp2" d="M74.13 81.11C73.56 81.73 72.6 82.85 72.01 83.6C71.41 84.35 70.66 85.27 70.34 85.66C70.01 86.04 69.61 86.53 69.45 86.73C69.28 86.93 68.76 87.67 68.28 88.37C67.8 89.06 67.35 89.65 67.27 89.68C67.19 89.71 67.12 89.82 67.12 89.92C67.12 90.03 66.91 90.4 66.66 90.75C66.4 91.1 65.91 91.91 65.56 92.55C65.2 93.19 64.71 94.13 64.46 94.64C64.21 95.15 64.01 95.61 64.01 95.66C64.01 95.72 64.38 95.76 64.83 95.76C65.29 95.76 66.32 95.9 67.12 96.07C67.92 96.24 68.73 96.46 68.92 96.56C69.11 96.65 69.44 96.74 69.65 96.74C70.02 96.74 70.04 96.61 70.04 94.55C70.03 92.97 70.15 91.89 70.44 90.7C70.67 89.79 70.96 88.78 71.1 88.46C71.24 88.14 71.65 87.18 72 86.32C72.36 85.47 73 84.15 73.42 83.4C73.84 82.65 74.35 81.73 74.55 81.36C74.76 80.98 75.03 80.57 75.16 80.43C75.28 80.29 75.34 80.14 75.28 80.08C75.21 80.03 74.7 80.49 74.13 81.11Z" />
		<path class="shp1" d="M95.03 81.89C94.58 82.52 93.78 83.27 93.09 83.72C92.4 84.17 91.49 84.57 90.86 84.7C90.14 84.84 89.28 84.86 88.25 84.74L86.72 84.57C85.65 86.23 84.76 87.28 84.04 87.98C83.32 88.67 81.87 89.8 80.81 90.48C79.76 91.16 77.95 92.3 76.8 93.01C75.65 93.72 74.2 94.74 73.59 95.27C72.97 95.8 72.21 96.53 71.89 96.88C71.57 97.24 71.37 97.57 71.45 97.62C71.53 97.67 71.97 97.5 72.42 97.24C72.88 96.99 73.73 96.62 74.32 96.42C75.04 96.18 75.96 96.06 77.14 96.06C78.17 96.07 79.17 96.18 79.57 96.33C79.95 96.48 80.54 96.81 80.89 97.06C81.23 97.31 81.65 97.78 81.81 98.1C81.97 98.42 82.1 99.05 82.11 99.51C82.11 99.96 81.98 100.66 81.81 101.07C81.55 101.71 81.55 101.8 81.81 101.8C81.97 101.8 82.33 101.51 82.61 101.16C82.89 100.82 83.33 100.18 83.57 99.75C83.82 99.32 84.47 97.84 85.02 96.44C85.57 95.05 86.23 93.54 86.49 93.09C86.75 92.63 86.9 92.21 86.82 92.16C86.74 92.11 85.93 92.86 85.02 93.84C83.37 95.61 83.36 95.61 82.59 95.5C82.16 95.43 81.61 95.18 81.37 94.94C81.1 94.67 80.93 94.27 80.93 93.91C80.93 93.59 81.1 93.07 81.3 92.75C81.49 92.42 82.48 91.24 83.49 90.12C84.5 88.99 85.58 87.65 85.9 87.13C86.38 86.35 86.55 86.21 86.87 86.33C87.08 86.41 88.04 86.51 89.01 86.57C90.65 86.66 90.84 86.63 92.02 86.07C92.91 85.66 93.59 85.15 94.32 84.35C94.98 83.62 95.5 82.82 95.74 82.14C95.95 81.55 96.05 81.01 95.96 80.94C95.87 80.87 95.45 81.3 95.03 81.89Z" />
		<path class="shp4" d="M17.19 85.06C17.19 85.97 17.22 86.32 17.26 85.84C17.3 85.35 17.3 84.61 17.26 84.18C17.22 83.75 17.19 84.15 17.19 85.06Z" />
		<path class="shp3" d="M147.59 91.14C147.39 92.24 146.89 94.32 146.49 95.76C146.08 97.21 145.61 98.78 145.43 99.27C145.26 99.75 145 100.4 144.86 100.73C144.73 101.05 144.49 101.62 144.35 101.99C144.21 102.37 143.64 103.55 143.09 104.62C142.53 105.69 141.88 106.92 141.64 107.34C141.4 107.77 140.6 109 139.87 110.07C139.14 111.14 138.05 112.63 137.46 113.38C136.86 114.13 136.44 114.8 136.53 114.88C136.61 114.95 137.95 115.04 139.52 115.07L142.36 115.13C143.88 112.87 144.78 111.46 145.34 110.55C145.9 109.64 146.91 107.81 147.58 106.47C148.25 105.13 149.03 103.42 149.31 102.67C149.6 101.92 150.09 100.52 150.41 99.56C150.73 98.59 151.24 96.84 151.54 95.66C151.85 94.49 152.16 93.13 152.24 92.65L152.38 91.77C149.4 89.91 148.41 89.32 148.25 89.25C148.01 89.16 147.89 89.52 147.59 91.14Z" />
		<path class="shp2" d="M103.99 91.07C103.77 91.16 103.54 91.35 103.47 91.5C103.41 91.65 103.5 92.08 103.68 92.45C103.86 92.83 104.24 93.79 104.53 94.59C104.81 95.4 105.14 96.45 105.26 96.93C105.37 97.41 105.63 98.51 105.84 99.36C106.04 100.22 106.25 101.56 106.31 102.33C106.4 103.5 106.48 103.74 106.76 103.74C107.07 103.74 107.09 103.56 106.97 101.46C106.89 100.2 106.7 98.51 106.54 97.71C106.38 96.91 106.12 95.72 105.96 95.08C105.8 94.44 105.54 93.48 105.38 92.94C105.23 92.4 105.01 91.73 104.89 91.43C104.77 91.14 104.6 90.9 104.52 90.91C104.44 90.92 104.2 90.99 103.99 91.07Z" />
		<path class="shp1" d="M55.21 92.4C54.95 92.7 54.67 93.29 54.59 93.72C54.51 94.15 54.49 94.87 54.55 95.32C54.65 95.98 54.8 96.24 55.3 96.57C55.82 96.91 56.01 96.94 56.37 96.76C56.61 96.64 56.9 96.3 57.01 96.01L57.21 95.47C58.14 96.41 58.26 96.73 58.25 97.27C58.24 97.67 58.08 98.29 57.91 98.63C57.71 99.02 57.66 99.3 57.78 99.36C57.89 99.42 58.24 99.15 58.56 98.78C58.88 98.4 59.21 97.86 59.29 97.56C59.37 97.27 59.43 96.55 59.42 95.96C59.42 95.37 59.29 94.54 59.14 94.11C59 93.68 58.57 93 58.18 92.59C57.57 91.94 57.39 91.85 56.58 91.86C55.84 91.87 55.59 91.97 55.21 92.4ZM76.46 97.11C76.08 97.18 75.3 97.47 74.71 97.76C74.12 98.05 73.38 98.53 73.05 98.83C72.73 99.13 72.24 99.68 71.96 100.05C71.68 100.42 71.35 101.05 71.23 101.46C71.11 101.86 71.06 102.27 71.11 102.38C71.16 102.49 71.45 102.37 71.74 102.11C72.04 101.86 72.45 101.56 72.67 101.46C72.88 101.35 73.45 101.2 73.93 101.13C74.75 101.01 74.83 101.04 75.24 101.59C75.57 102.04 75.84 102.19 76.31 102.19C76.66 102.19 77.17 102.09 77.43 101.95C77.7 101.81 78.19 101.52 78.5 101.29C78.82 101.07 79.28 100.59 79.52 100.22C79.75 99.86 79.95 99.25 79.96 98.88C79.97 98.46 79.84 98.07 79.63 97.88C79.44 97.71 79.11 97.48 78.89 97.37C78.68 97.26 78.2 97.13 77.82 97.08C77.45 97.02 76.83 97.03 76.46 97.11Z" />
		<path class="shp0" d="M87.07 102.82C87.03 102.95 86.95 103.28 86.9 103.55C86.85 103.82 86.92 104.3 87.06 104.62C87.2 104.94 87.44 105.5 87.58 105.87C87.72 106.24 88.58 107.28 89.49 108.19C90.4 109.09 91.85 110.37 92.7 111.04C93.56 111.71 95.16 112.88 96.25 113.64L98.25 115.03C101.64 115.03 102.74 114.96 102.88 114.88C103.09 114.77 103.09 114.7 102.88 114.54C102.74 114.43 101.97 114.04 101.17 113.69C100.36 113.33 99.58 112.96 99.42 112.87C99.26 112.78 98.03 112.03 96.69 111.2C95.36 110.37 93.41 109.01 92.36 108.17C91.32 107.34 90.05 106.16 89.54 105.54C89.03 104.93 88.36 104.01 88.04 103.5C87.71 102.99 87.38 102.58 87.3 102.57C87.22 102.57 87.12 102.68 87.07 102.82Z" />
		<path class="shp2" d="M74.42 107.01C73.88 107.19 72.61 107.91 71.6 108.6C70.58 109.29 69.33 110.01 68.82 110.2C68.31 110.4 67.48 110.56 66.97 110.56C66.47 110.56 65.61 110.41 65.08 110.23C64.54 110.05 63.36 109.53 62.45 109.08C61.54 108.64 60.45 108.17 60.02 108.05C59.59 107.93 58.74 107.83 58.12 107.83C57.51 107.83 56.96 107.92 56.91 108.02C56.85 108.13 57.04 108.68 57.33 109.24C57.61 109.8 58.25 110.69 58.74 111.2C59.23 111.72 60.16 112.47 60.8 112.87C61.44 113.27 62.36 113.78 62.84 114C63.32 114.22 64.29 114.58 64.98 114.8C65.68 115.01 67.12 115.3 68.19 115.44C69.86 115.65 70.37 115.64 71.79 115.38C72.7 115.21 73.84 114.9 74.32 114.67C74.8 114.45 75.62 113.89 76.14 113.43C76.72 112.92 77.32 112.13 77.7 111.36L78.31 110.12C77.38 109.41 77.3 109.4 76.9 109.67C76.66 109.84 76.24 110.1 75.97 110.26C75.71 110.42 75.48 110.49 75.48 110.41C75.48 110.33 75.61 109.93 75.77 109.53C75.94 109.13 76.07 108.43 76.07 107.98C76.08 107.52 75.97 107.04 75.83 106.9C75.69 106.77 75.54 106.66 75.49 106.67C75.43 106.67 74.95 106.83 74.42 107.01Z" />
		<path class="shp1" d="M59.81 110.76C59.77 110.86 60.14 111.2 60.65 111.52C61.16 111.83 62.14 112.35 62.84 112.68C63.54 113 64.67 113.41 65.37 113.59C66.3 113.83 67.15 113.89 68.58 113.82C70.13 113.75 70.76 113.62 71.69 113.21C72.33 112.93 72.79 112.63 72.71 112.55C72.63 112.47 72.02 112.57 71.35 112.78C70.53 113.04 69.57 113.16 68.39 113.17C66.99 113.17 66.48 113.09 65.86 112.77C65.43 112.54 64.64 112.3 64.11 112.23C63.57 112.16 62.41 111.76 61.52 111.34C60.63 110.92 59.86 110.66 59.81 110.76Z" />
		<path class="shp4" d="M175.21 114.89C175.26 114.97 180.63 115.03 187.16 115.03L199.03 115.03C198.82 115.89 198.82 115.89 199.04 115.52C199.16 115.3 199.18 115.07 199.09 114.99C199 114.91 193.58 114.82 187.03 114.79C180.49 114.76 175.17 114.81 175.21 114.89ZM0 115.18C0 115.36 0.09 115.65 0.2 115.81C0.35 116.03 0.38 115.97 0.3 115.57L0.19 115.03L19.94 115.02L20.41 117.08C20.24 115.57 20.16 115.06 20.12 114.98C20.07 114.9 15.53 114.84 10.02 114.84C0.61 114.84 0 114.86 0 115.18Z" />
		<path class="shp0" d="M113.92 115.23C113.86 115.33 113.9 115.55 114.01 115.71C114.11 115.87 114.29 115.96 114.4 115.91C114.5 115.85 114.59 115.63 114.59 115.42C114.59 115.21 114.46 115.03 114.31 115.03C114.15 115.03 113.98 115.12 113.92 115.23Z" />
		<path class="shp4" d="M24.47 116.8C24.4 116.95 24.17 117.6 23.94 118.24C23.72 118.89 23.56 119.43 23.59 119.46C23.61 119.48 23.86 118.88 24.13 118.11C24.4 117.35 24.61 116.68 24.61 116.63C24.6 116.57 24.54 116.65 24.47 116.8ZM1.02 117.56C1.18 117.94 1.8 119.21 2.39 120.38C2.99 121.56 3.49 122.46 3.49 122.38C3.5 122.3 2.93 121.07 2.23 119.65C1.53 118.24 0.9 117.03 0.85 116.98C0.79 116.92 0.87 117.19 1.02 117.56ZM197.69 118.19C197.48 118.65 197.08 119.55 196.79 120.19C196.5 120.83 196.13 121.66 195.97 122.04C195.81 122.41 195.75 122.64 195.85 122.55C195.94 122.46 196.44 121.45 196.95 120.31C197.47 119.17 197.96 118.05 198.05 117.81C198.13 117.56 198.17 117.37 198.13 117.37C198.09 117.37 197.89 117.74 197.69 118.19ZM20.46 118.15C20.46 118.41 20.52 118.98 20.61 119.41L20.77 120.19C20.77 119.13 20.7 118.56 20.62 118.24C20.49 117.71 20.47 117.7 20.46 118.15Z" />
		<path class="shp2" d="M43.5 118.34L42.36 118.44C41.95 119.95 41.79 120.73 41.74 121.16C41.68 121.59 41.51 122.25 41.35 122.62C41.19 123 41.1 123.37 41.15 123.45C41.2 123.53 41.18 123.71 41.1 123.84C41.02 123.97 40.95 124.13 40.94 124.18C40.94 124.23 40.86 124.76 40.77 125.35C40.69 125.94 40.54 126.57 40.44 126.76C40.35 126.95 40.22 127.52 40.16 128.02C40.1 128.53 39.98 129.04 39.91 129.14C39.83 129.25 39.74 129.64 39.71 130.02C39.68 130.39 39.58 130.83 39.49 130.99C39.4 131.15 39.27 131.59 39.2 131.97C39.13 132.34 39.04 132.82 39.01 133.04C38.98 133.25 38.85 133.82 38.73 134.3C38.61 134.78 38.47 135.35 38.42 135.57C38.37 135.78 38.28 136.22 38.22 136.54C38.16 136.86 37.91 138 37.66 139.07C37.41 140.14 37.05 141.72 36.85 142.57C36.66 143.43 36.52 144.2 36.54 144.28C36.56 144.36 36.5 144.53 36.41 144.67C36.31 144.8 36.16 145.43 36.08 146.08C35.99 146.72 35.91 147.29 35.89 147.34C35.88 147.4 35.81 147.57 35.75 147.73C35.69 147.89 35.48 148.72 35.29 149.58C35.1 150.44 34.96 151.2 34.98 151.28C35 151.36 34.94 151.54 34.85 151.67C34.76 151.81 34.61 152.44 34.54 153.08C34.46 153.73 34.31 154.43 34.2 154.64C34.09 154.85 33.98 155.2 33.96 155.42C33.94 155.63 33.87 155.94 33.8 156.1C33.74 156.26 33.62 156.74 33.54 157.17C33.46 157.6 33.38 158.04 33.36 158.14C33.34 158.25 33.31 158.38 33.28 158.44C33.26 158.49 33.2 158.71 33.15 158.92C33.1 159.14 33.04 159.62 33.02 159.99L32.98 160.67C35.09 160.69 35.79 160.62 35.89 160.53C36 160.44 36.57 160.4 37.16 160.45C37.75 160.5 38.52 160.48 38.88 160.41C39.42 160.31 39.58 160.15 39.8 159.51C39.95 159.08 40.12 158.38 40.18 157.95C40.24 157.52 40.32 157 40.35 156.78C40.38 156.57 40.48 156.09 40.56 155.71C40.64 155.34 40.74 154.85 40.78 154.64C40.81 154.43 40.94 153.77 41.06 153.18C41.18 152.59 41.28 151.98 41.29 151.82C41.29 151.66 41.36 151.44 41.43 151.33C41.5 151.22 41.59 150.79 41.61 150.36C41.64 149.93 41.75 149.49 41.85 149.39C41.95 149.28 42.03 149.04 42.03 148.85C42.02 148.63 42.18 148.51 42.46 148.5C42.7 148.5 43.84 148.45 44.99 148.4L47.08 148.31C47.08 149.52 47.16 150.03 47.25 150.21C47.35 150.4 47.48 152 47.54 153.76C47.61 155.53 47.72 157.55 47.78 158.24C47.84 158.94 47.95 159.58 48.02 159.67C48.09 159.75 48.94 159.81 49.9 159.8C50.87 159.79 52.27 159.73 53.02 159.67C53.76 159.61 54.64 159.55 54.96 159.54C55.45 159.51 55.54 159.42 55.58 158.92C55.6 158.6 55.54 158.25 55.44 158.14C55.34 158.04 55.26 157.6 55.28 157.17C55.29 156.74 55.24 155.78 55.17 155.03C55.11 154.28 55.01 153.23 54.97 152.69C54.93 152.16 54.84 150.98 54.78 150.07C54.72 149.16 54.62 147.76 54.55 146.95C54.49 146.15 54.41 145.23 54.38 144.91C54.34 144.59 54.26 143.54 54.2 142.57C54.14 141.61 54.08 140.23 54.08 139.51C54.09 138.78 54 138.15 53.89 138.1C53.78 138.04 53.71 137.67 53.72 137.27C53.73 136.87 53.68 135.23 53.6 133.62C53.52 132.01 53.39 130.61 53.3 130.51C53.21 130.4 53.13 129.57 53.12 128.66C53.11 127.75 53.06 126.52 53 125.93C52.94 125.34 52.87 124.51 52.83 124.08C52.79 123.65 52.7 122.25 52.62 120.97C52.55 119.68 52.43 118.57 52.36 118.48C52.29 118.4 50.53 118.32 48.44 118.29C46.36 118.26 44.13 118.29 43.5 118.34ZM96.99 127.25C97.07 132.25 97.19 141.34 97.25 147.44L97.37 158.53L105.16 158.64L104.86 144.23L107.2 144.23C108.13 148.22 108.83 151.18 109.35 153.38C109.88 155.57 110.39 157.69 110.5 158.1L110.7 158.83C117.74 158.83 118.29 158.78 118.29 158.53C118.29 158.37 117.8 156.51 117.21 154.4C116.61 152.28 115.82 149.33 115.45 147.83C115.07 146.33 114.63 144.67 114.47 144.13L114.17 143.16C115.4 141.95 115.75 141.53 115.76 141.45C115.76 141.37 116.02 141.02 116.35 140.68L116.94 140.04C116.77 136.72 116.68 134.1 116.62 132.06C116.57 130.03 116.45 127.01 116.36 125.35L116.21 122.33L112.16 118.13L96.84 118.15L96.99 127.25ZM117.57 118.3C117.48 118.39 117.57 119.5 117.75 120.78C117.96 122.23 118.08 124.37 118.09 126.47C118.09 128.5 118.17 129.86 118.29 129.92C118.4 129.97 118.47 130.7 118.46 131.53C118.45 132.36 118.5 134.44 118.58 136.15C118.65 137.86 118.74 139.7 118.78 140.24C118.81 140.77 118.89 142.09 118.95 143.16C119.02 144.23 119.1 145.98 119.15 147.05C119.19 148.12 119.28 150.09 119.34 151.43C119.39 152.77 119.49 154.91 119.56 156.2C119.62 157.48 119.74 158.6 119.81 158.68C119.88 158.75 121.56 158.83 123.54 158.85L127.14 158.88C127.11 156.8 127.04 155.5 126.97 154.64C126.91 153.78 126.8 151.68 126.74 149.97C126.69 148.26 126.56 146.37 126.46 145.78C126.37 145.2 126.27 143.97 126.26 143.06C126.24 142.15 126.2 141.05 126.17 140.63C126.13 140.2 126.05 139.23 125.98 138.49C125.91 137.74 125.82 136.12 125.76 134.88C125.71 133.65 125.62 132.03 125.57 131.28C125.52 130.53 125.43 128.91 125.38 127.68C125.33 126.45 125.2 123.89 125.1 121.99C124.99 120.09 124.86 118.45 124.81 118.34C124.75 118.22 123.35 118.15 121.22 118.15C119.29 118.15 117.65 118.22 117.57 118.3ZM129.69 119.12C129.23 119.6 128.55 120.31 128.19 120.69C127.83 121.07 127.38 121.62 127.19 121.91C126.91 122.33 126.86 122.75 126.93 124.23C126.97 125.22 127.02 126.07 127.05 126.13C127.07 126.18 127.07 126.31 127.05 126.42C127.03 126.52 127.1 127.79 127.22 129.24C127.33 130.69 127.48 132.66 127.56 133.62C127.63 134.58 127.71 135.9 127.74 136.54C127.77 137.18 127.85 138.89 127.92 140.33C127.98 141.78 128.11 143.49 128.2 144.13C128.3 144.77 128.39 146 128.41 146.85C128.44 147.71 128.48 148.72 128.5 149.09C128.53 149.47 128.57 149.77 128.59 149.77C128.61 149.77 128.66 150.56 128.71 151.53C128.76 152.49 128.83 153.45 128.88 153.67C128.92 153.88 128.96 154.23 128.97 154.45C128.97 154.67 129.88 155.76 131.12 157.02L133.27 159.21C135.76 159.22 137.44 159.26 138.62 159.32C139.8 159.37 141.72 159.46 142.9 159.5C144.84 159.58 145.08 159.55 145.43 159.2C145.64 158.99 146.19 158.4 146.64 157.89C147.09 157.39 147.74 156.66 148.09 156.27C148.56 155.77 148.72 155.42 148.69 155.01C148.66 154.7 148.59 153.61 148.53 152.6C148.47 151.58 148.34 150.48 148.25 150.16C148.16 149.84 148.08 149.14 148.07 148.61C148.06 148 147.95 147.52 147.76 147.34C147.52 147.11 146.85 147.05 144.4 147.05L141.34 147.05C141.42 149.92 141.49 151.21 141.54 151.77C141.61 152.5 141.57 152.8 141.39 152.81C141.26 152.83 141.06 152.82 140.95 152.8C140.85 152.78 139.88 152.77 138.81 152.78C137.54 152.79 136.75 152.71 136.51 152.55C136.22 152.35 136.14 151.96 136.07 150.26C136.03 149.14 135.9 147.74 135.8 147.15C135.69 146.56 135.56 145.11 135.49 143.94C135.43 142.76 135.35 141.49 135.31 141.11C135.28 140.74 135.2 139.51 135.13 138.39C135.07 137.26 134.93 135.78 134.83 135.08C134.72 134.38 134.65 133.6 134.66 133.33C134.67 133.06 134.62 131.81 134.56 130.55L134.44 128.27C132.89 126.83 132.08 126.09 131.64 125.7C131.2 125.3 130.88 124.94 130.93 124.9C130.99 124.85 132.89 124.87 135.17 124.94L139.3 125.06C139.3 125.89 139.33 126.37 139.37 126.66C139.4 126.96 139.5 127.94 139.58 128.85C139.66 129.76 139.79 130.57 139.85 130.64C139.92 130.72 141.34 130.79 143 130.8C144.65 130.81 146.08 130.75 146.17 130.66C146.26 130.58 146.24 129.72 146.12 128.75C146.01 127.79 145.86 126.34 145.8 125.54C145.74 124.74 145.69 123.78 145.69 123.4C145.7 122.79 145.46 122.48 143.52 120.51L141.34 118.3L130.54 118.24L129.69 119.12ZM147 118.44C146.96 118.54 147 119.46 147.09 120.48C147.19 121.5 147.4 123.69 147.57 125.35C147.73 127.01 148 129.68 148.16 131.28C148.32 132.89 148.54 135.04 148.64 136.05C148.75 137.07 148.96 139.22 149.12 140.82C149.27 142.43 149.62 145.93 149.9 148.61C150.17 151.28 150.53 154.83 150.69 156.49C150.86 158.25 151.08 159.6 151.22 159.73C151.37 159.87 152.72 160 154.77 160.09C156.59 160.16 158.16 160.23 158.27 160.25C158.39 160.27 158.45 159.68 158.43 158.73C158.41 157.87 158.3 156.43 158.19 155.52C158.07 154.61 157.84 152.68 157.68 151.23L157.39 148.61C158.52 145.64 158.94 144.79 159.05 144.8C159.15 144.82 159.66 145.77 160.17 146.92C160.69 148.06 161.22 149.26 161.37 149.58C161.51 149.9 161.91 150.82 162.26 151.62C162.61 152.43 163.13 153.61 163.42 154.25C163.72 154.89 164.4 156.47 164.95 157.75C165.5 159.04 166.06 160.25 166.19 160.45C166.4 160.75 166.86 160.83 169.16 160.96C170.66 161.05 172.41 161.19 173.05 161.27C173.86 161.37 174.27 161.34 174.37 161.19C174.45 161.07 174.05 159.94 173.47 158.68C172.89 157.42 172.06 155.63 171.62 154.69C171.18 153.75 170.82 152.94 170.82 152.89C170.82 152.84 170.52 152.16 170.16 151.38C169.81 150.6 168.96 148.74 168.29 147.24C167.62 145.75 166.16 142.55 165.06 140.14L163.06 135.76C165.03 130.48 165.85 128.29 166.15 127.49C166.45 126.69 167.32 124.36 168.08 122.33C168.84 120.3 169.39 118.57 169.31 118.49C169.23 118.41 167.63 118.36 165.76 118.39L162.36 118.44C160.63 123.26 159.81 125.54 159.42 126.61C159.04 127.68 158.51 129.13 158.25 129.82C158 130.52 157.46 132 157.06 133.11C156.65 134.23 156.24 135.17 156.13 135.21C156.02 135.25 155.87 134.7 155.79 133.96C155.71 133.24 155.52 131.51 155.35 130.12C155.19 128.72 154.93 126.45 154.78 125.06C154.62 123.66 154.4 121.61 154.27 120.48C154.15 119.36 154.03 118.41 154.02 118.38C154 118.35 152.44 118.31 150.54 118.28C148.38 118.26 147.06 118.32 147 118.44ZM5.58 118.58C5.42 118.67 5.87 119.76 7.05 122.13C8.58 125.19 8.74 125.63 8.66 126.37C8.61 126.82 8.43 128.2 8.27 129.43C8.11 130.67 7.88 132.33 7.78 133.13C7.67 133.94 7.27 136.91 6.89 139.75C6.52 142.59 5.99 146.57 5.72 148.61C5.46 150.64 5.11 153.27 4.96 154.45C4.81 155.62 4.5 158.03 4.28 159.8C4.06 161.56 3.9 163.03 3.93 163.05C3.96 163.07 5 163 6.23 162.9C7.46 162.79 8.9 162.64 9.43 162.57C10.37 162.43 10.4 162.41 10.53 161.65C10.6 161.22 10.75 160.08 10.87 159.12C10.99 158.15 11.35 155.18 11.67 152.5C11.99 149.82 12.34 147.02 12.44 146.27C12.55 145.52 12.79 143.7 12.98 142.23C13.17 140.76 13.39 139.55 13.47 139.55C13.55 139.56 13.67 140.02 13.73 140.58C13.78 141.14 13.92 142.21 14.02 142.96C14.12 143.71 14.39 145.81 14.61 147.63C14.84 149.45 15.09 151.51 15.19 152.21C15.28 152.9 15.36 153.58 15.36 153.72C15.37 153.9 15.88 153.93 17.56 153.84C18.79 153.78 19.85 153.63 19.98 153.5C20.11 153.38 21.02 151 21.99 148.22C22.97 145.43 24.11 142.15 24.53 140.92C24.95 139.69 25.29 138.64 25.29 138.58C25.29 138.53 25.37 138.57 25.48 138.68C25.61 138.81 25.54 140.04 25.28 142.38C25.06 144.31 24.76 147.11 24.61 148.61C24.47 150.11 24.16 153.04 23.94 155.13C23.72 157.21 23.47 159.43 23.39 160.05C23.31 160.67 23.29 161.22 23.35 161.27C23.4 161.32 23.93 161.37 24.51 161.36C25.1 161.36 26.78 161.25 28.24 161.12L30.89 160.87C31.09 159.06 31.27 157.18 31.42 155.52C31.57 153.86 31.79 151.62 31.9 150.55C32.01 149.48 32.23 147.25 32.39 145.59C32.54 143.93 32.8 141.22 32.96 139.56C33.13 137.9 33.35 135.62 33.45 134.5C33.55 133.37 33.77 131.09 33.94 129.43C34.1 127.78 34.32 125.45 34.43 124.28C34.54 123.1 34.68 121.7 34.73 121.16C34.78 120.63 34.87 119.77 34.92 119.26L35.02 118.34L27.14 118.33C25.98 121.43 25.26 123.38 24.79 124.67C24.32 125.95 23.11 129.28 22.11 132.06C21.1 134.85 20.2 137.15 20.11 137.17C20.02 137.2 19.88 136.81 19.8 136.3C19.73 135.79 19.58 134.71 19.47 133.91C19.37 133.11 19.14 131.4 18.96 130.12C18.79 128.83 18.53 126.82 18.38 125.64C18.24 124.46 17.98 122.45 17.8 121.16C17.63 119.88 17.4 118.74 17.29 118.63C17.17 118.51 14.96 118.44 11.45 118.44C8.35 118.44 5.7 118.5 5.58 118.58ZM173.39 120.48L171.79 122.62C172.08 124.96 172.31 126.65 172.48 127.88C172.65 129.11 172.92 131.04 173.07 132.16C173.23 133.28 173.44 134.82 173.54 135.57C173.64 136.32 173.81 137.37 173.91 137.9C174.09 138.78 174.3 139.07 176.11 140.88C177.21 141.99 178.24 142.96 178.4 143.05C178.57 143.14 179.79 143.27 181.13 143.34C182.47 143.41 184.22 143.51 185.02 143.56C185.82 143.62 186.53 143.73 186.6 143.8C186.66 143.87 186.91 145.25 187.15 146.85C187.38 148.46 187.75 150.83 187.95 152.11C188.16 153.39 188.33 154.62 188.33 154.84C188.32 155.2 188.22 155.22 186.82 155.16C185.99 155.12 184.74 155.03 184.05 154.96L182.79 154.84C182.4 152.27 182.17 150.87 182.04 150.07L181.79 148.61C179.09 148.41 177.56 148.33 176.65 148.31L175 148.26C175.08 150.34 175.18 151.38 175.28 151.92C175.38 152.45 175.57 153.81 175.7 154.93L175.93 156.98L180.84 161.93C182.34 161.94 184.36 162.07 186.28 162.23C188.21 162.4 190.49 162.61 191.34 162.7C192.2 162.8 192.99 162.83 193.09 162.78C193.2 162.73 193.97 161.82 194.8 160.76C196.06 159.13 196.3 158.71 196.31 158.1C196.31 157.69 196.22 156.88 196.11 156.29C196 155.71 195.52 152.77 195.03 149.77C194.55 146.78 194.05 143.67 193.93 142.86L193.7 141.41L188.81 136.44C184.29 136.41 182.54 136.35 182.01 136.28C181.1 136.16 181.04 136.11 180.9 135.47C180.83 135.09 180.62 133.82 180.45 132.65C180.28 131.47 180.09 130.15 180.03 129.73C179.93 129.06 179.67 128.72 178.18 127.29C177.23 126.38 176.45 125.57 176.45 125.49C176.46 125.41 178.1 125.4 180.11 125.47C182.11 125.54 183.77 125.6 183.79 125.62C183.81 125.63 184.06 127 184.33 128.66C184.61 130.32 184.86 131.69 184.88 131.72C184.9 131.75 186.43 131.84 188.28 131.92C190.91 132.03 191.64 132.01 191.63 131.82C191.63 131.69 191.41 130.24 191.14 128.61L190.64 125.64C193.07 120.44 193.77 118.86 193.77 118.78C193.77 118.7 191.35 118.57 188.38 118.49C185.41 118.41 181.18 118.34 178.98 118.34L174.98 118.34L173.39 120.48Z" />
		<path class="shp1" d="M61.86 120.47C61.81 120.58 61.83 121.75 61.91 123.06C61.98 124.37 62.14 126.63 62.25 128.07C62.37 129.52 62.59 132.28 62.75 134.2C62.91 136.13 63.12 138.71 63.23 139.95C63.33 141.18 63.47 142.97 63.52 143.94C63.58 144.9 63.67 146.15 63.72 146.71C63.77 147.27 63.9 147.73 64.01 147.73C64.11 147.73 64.3 147.1 64.41 146.32C64.52 145.54 64.7 144.47 64.8 143.94C64.9 143.4 65.21 141.6 65.49 139.95C65.76 138.29 66.06 136.49 66.14 135.96C66.22 135.42 66.8 131.94 67.43 128.23C68.06 124.52 68.54 121.43 68.48 121.38C68.43 121.32 67.73 121.21 66.93 121.14L65.47 121.02C65.37 122.94 65.3 123.56 65.26 123.64C65.21 123.72 65.08 123.72 64.95 123.64C64.8 123.54 64.78 123.14 64.89 122.28C65.03 121.29 65.01 121.05 64.78 120.99C64.62 120.96 64.06 120.81 63.52 120.68C62.99 120.55 62.41 120.4 62.24 120.35C62.08 120.29 61.9 120.35 61.86 120.47Z" />
		<path class="shp4" d="M21.14 123.4C21.2 124.2 21.3 124.95 21.35 125.06C21.41 125.16 21.58 125.07 21.73 124.86C21.87 124.65 21.98 124.34 21.98 124.18C21.97 124.02 21.86 124.11 21.75 124.37C21.55 124.81 21.51 124.72 21.28 123.4L21.04 121.94L21.14 123.4ZM64.87 122.28C64.81 122.42 64.79 122.77 64.82 123.07C64.86 123.36 64.97 123.63 65.08 123.65C65.18 123.67 65.3 123.32 65.32 122.87C65.35 122.39 65.29 122.04 65.17 122.04C65.06 122.04 64.92 122.15 64.87 122.28ZM117.96 123.79C117.96 124.59 118 124.94 118.04 124.57C118.08 124.19 118.08 123.54 118.04 123.11C118 122.68 117.96 122.99 117.96 123.79ZM4.67 124.91C4.67 125.04 4.82 125.44 4.99 125.79C5.17 126.13 5.38 126.68 5.46 127C5.57 127.46 5.61 127.49 5.62 127.15C5.63 126.91 5.42 126.25 5.16 125.69C4.89 125.13 4.67 124.78 4.67 124.91Z" />
		<path class="shp1" d="M101.56 124.96C101.56 125.07 102.21 125.77 103.02 126.52L104.47 127.88C104.48 132.48 104.54 134.67 104.62 135.71L104.77 137.61L109.34 137.61C109.15 128.33 109.02 125.44 108.92 125.2C108.76 124.77 108.71 124.76 105.16 124.76C102.89 124.76 101.56 124.84 101.56 124.96Z" />
		<path class="shp4" d="M194.3 129.73C194.36 130.37 194.48 131.07 194.57 131.28C194.67 131.52 194.69 131.34 194.62 130.8C194.56 130.32 194.43 129.61 194.34 129.24C194.23 128.76 194.22 128.9 194.3 129.73Z" />
		<path class="shp1" d="M45.93 130.07C45.83 130.31 45.57 131.34 45.35 132.35C45.13 133.37 44.86 134.69 44.74 135.27C44.63 135.86 44.46 136.69 44.37 137.12C44.28 137.55 44.06 138.6 43.9 139.46C43.73 140.32 43.55 141.21 43.49 141.45C43.39 141.88 43.42 141.89 45.04 141.89L46.69 141.89C46.69 140.91 46.6 138.87 46.49 136.73C46.39 134.59 46.3 132.12 46.29 131.24C46.28 130.35 46.23 129.63 46.19 129.63C46.14 129.63 46.02 129.83 45.93 130.07Z" />
		<path fill-rule="evenodd" class="shp4" d="M46.44 131.97C46.49 132.34 46.49 133.04 46.45 133.52C46.41 134 46.37 133.7 46.37 132.84C46.37 131.98 46.4 131.59 46.44 131.97ZM4.82 132.45C4.87 132.67 4.85 133.24 4.78 133.72C4.71 134.2 4.61 134.55 4.57 134.5C4.52 134.44 4.54 133.87 4.61 133.23C4.69 132.59 4.78 132.24 4.82 132.45ZM127.62 134.98C127.7 135.3 127.79 135.92 127.8 136.34C127.82 136.77 127.8 137.08 127.75 137.03C127.71 136.97 127.63 136.36 127.57 135.66C127.5 134.87 127.52 134.61 127.62 134.98ZM195.27 134.88C195.32 135.15 195.3 135.48 195.25 135.61C195.16 135.8 194.81 135.82 193.87 135.71C192.91 135.6 192.6 135.62 192.6 135.81C192.61 135.94 192.52 136.01 192.41 135.96C192.31 135.9 192.22 135.77 192.22 135.66C192.22 135.55 192.83 135.47 193.68 135.47C195.13 135.47 195.14 135.47 195.16 134.93C195.19 134.41 195.19 134.41 195.27 134.88ZM98.62 137.8L103.11 137.8L103.21 139.07L110.99 139.07L111.09 138L115.37 138L115.37 138.78C115.37 139.47 115.21 139.74 113.91 141.21C113.02 142.22 112.5 142.96 112.59 143.11C112.66 143.24 112.83 143.83 112.96 144.42C113.09 145.01 113.55 146.85 113.98 148.51C114.42 150.17 115.11 152.75 115.53 154.25C115.95 155.75 116.26 157.04 116.22 157.12C116.18 157.2 115.21 157.24 111.96 157.13L111.55 155.59C111.32 154.75 110.81 152.7 110.4 151.04C110 149.38 109.46 147.15 109.21 146.08C108.95 145.01 108.69 143.91 108.64 143.64C108.58 143.38 108.43 143.04 108.3 142.9C108.14 142.72 107.42 142.66 105.79 142.66C104.17 142.67 103.46 142.74 103.37 142.91C103.3 143.05 103.26 144.73 103.28 146.66C103.3 148.59 103.36 151.72 103.5 157.07L99.03 157.07L98.94 154.69C98.88 153.38 98.79 149.04 98.73 145.05L98.62 137.8ZM90.61 138.04C91.01 138 91.05 138.08 91.05 139.75L87.01 139.74C83.45 139.73 82.94 139.77 82.68 140.06C82.44 140.34 82.38 141.45 82.34 146.93C82.3 150.91 82.35 153.55 82.47 153.67C82.59 153.79 84.66 153.83 93.92 153.67L93.98 156.98L78.02 157.07L78.11 153.42C78.17 151.42 78.26 147.17 78.4 138.19L84.29 138.14C87.53 138.11 90.37 138.07 90.61 138.04ZM124.51 138L124.54 138.63C124.55 138.98 124.59 139.48 124.61 139.75C124.64 140.02 124.76 141.86 124.89 143.84C125.01 145.82 125.23 149.63 125.38 152.3C125.53 154.98 125.59 157.25 125.52 157.35C125.44 157.46 124.56 157.48 123.39 157.4C122.3 157.33 121.34 157.23 121.25 157.19C121.17 157.15 121.04 155.68 120.96 153.93C120.87 152.18 120.77 150.31 120.73 149.77C120.69 149.24 120.6 147.4 120.53 145.69C120.46 143.97 120.33 141.61 120.25 140.43C120.16 139.25 120.13 138.23 120.17 138.14C120.22 138.06 121.21 138 124.51 138ZM130.45 138.01C130.88 138 131.77 138.06 133.63 138.29L133.75 139.65C133.82 140.4 133.91 141.5 133.95 142.09C133.99 142.68 134.11 144.25 134.22 145.59C134.32 146.93 134.51 149.34 134.63 150.94C134.76 152.55 134.91 153.92 134.99 153.99C135.06 154.07 136.88 154.2 139.04 154.29C142.87 154.44 142.98 154.44 143.12 154.06C143.2 153.84 143.16 152.53 143.02 151.14C142.89 149.75 142.81 148.58 142.84 148.55C142.87 148.52 143.73 148.56 146.6 148.75L146.85 151.3C146.99 152.71 147.14 154.06 147.19 154.3C147.25 154.63 146.93 155.15 144.46 158.03L142.32 157.94C141.14 157.89 138.73 157.8 133.75 157.64L130.38 154.25L130.17 151.43C130.05 149.88 129.92 147.99 129.87 147.24C129.82 146.49 129.69 144.57 129.57 142.96C129.46 141.36 129.31 139.63 129.25 139.12C129.16 138.43 129.19 138.18 129.4 138.12C129.55 138.07 130.02 138.02 130.45 138.01ZM70.43 138.19L70.31 138.92C70.25 139.32 70.07 140.35 69.92 141.21C69.76 142.07 69.55 143.25 69.45 143.84C69.34 144.43 69.05 146.09 68.79 147.54C68.53 148.98 68.14 151.17 67.92 152.4C67.71 153.63 67.42 155.26 67.02 157.41L64.3 157.53C62.8 157.6 61.01 157.66 59.05 157.66L58.9 155.66C58.82 154.57 58.62 152.22 58.45 150.46C58.29 148.69 58.03 145.67 57.88 143.74C57.73 141.81 57.54 139.86 57.45 139.41C57.3 138.58 57.3 138.58 57.88 138.58C58.2 138.58 59.12 138.53 61.38 138.34L61.53 139.77C61.61 140.56 61.79 142.17 61.94 143.35C62.09 144.53 62.41 147.07 62.63 149C62.86 150.92 63.09 152.76 63.13 153.08C63.18 153.4 63.32 153.78 63.46 153.91C63.67 154.11 63.77 154.1 64.01 153.83C64.17 153.65 64.46 152.66 64.66 151.64C64.86 150.61 65.09 149.42 65.17 149C65.26 148.57 65.6 146.95 65.94 145.4C66.28 143.84 66.64 142.18 66.74 141.7C66.85 141.22 67.03 140.28 67.15 139.61C67.3 138.79 67.47 138.38 67.68 138.32C67.86 138.28 68.54 138.23 70.43 138.19ZM52.24 138.38L52.38 139.11C52.45 139.52 52.61 141.25 52.72 142.96C52.84 144.67 52.97 146.47 53.02 146.95C53.08 147.43 53.2 149.03 53.31 150.5C53.42 151.98 53.59 154.25 53.7 155.56C53.81 156.88 53.87 157.96 53.85 157.98C53.82 157.99 52.79 158.07 49.32 158.28L49.17 156.46C49.09 155.46 48.93 153.06 48.81 151.14C48.69 149.21 48.51 147.41 48.41 147.15C48.23 146.67 48.21 146.66 46.73 146.81C45.91 146.89 44.34 146.95 43.24 146.95C41.38 146.95 41.23 146.98 40.97 147.39C40.82 147.63 40.54 148.53 40.36 149.39C40.18 150.24 39.99 151.16 39.94 151.43C39.9 151.7 39.74 152.48 39.59 153.18C39.44 153.88 39.18 155.23 39 156.2C38.83 157.16 38.66 158.12 38.62 158.34C38.57 158.61 38.33 158.77 37.8 158.87C37.4 158.95 36.52 159.02 35.85 159.02C34.78 159.02 34.64 158.98 34.72 158.68C34.76 158.49 35.02 157.38 35.29 156.2C35.56 155.02 36.1 152.66 36.5 150.94C36.89 149.23 37.41 146.91 37.65 145.78C37.89 144.66 38.26 143 38.48 142.09C38.69 141.18 38.92 140.1 38.98 139.7C39.05 139.3 39.17 138.93 39.25 138.89C39.33 138.84 40.08 138.77 42.44 138.68L42.36 139.36C42.31 139.74 42.12 140.79 41.95 141.7C41.77 142.61 41.69 143.41 41.77 143.48C41.86 143.55 43.33 143.55 48.15 143.35L48.15 138.61L48.74 138.53C49.06 138.48 49.98 138.43 52.24 138.38ZM150.54 138.78L154.67 138.78L154.77 139.99C154.82 140.66 154.97 141.32 155.11 141.45C155.3 141.65 155.41 141.63 155.67 141.36C155.85 141.17 156.16 140.55 156.35 139.98C156.59 139.31 156.85 138.91 157.1 138.84C157.32 138.78 158.02 138.79 158.66 138.85C159.3 138.92 160.5 139 162.83 139.07L163.35 140.24C163.64 140.88 164.25 142.19 164.7 143.16C165.14 144.12 165.87 145.74 166.3 146.76C166.73 147.77 167.41 149.31 167.81 150.16C168.2 151.02 168.9 152.55 169.36 153.57C169.82 154.59 170.47 156.03 170.81 156.78C171.15 157.53 171.55 158.41 171.7 158.73C171.84 159.05 171.94 159.32 171.92 159.32C171.9 159.33 170.88 159.27 169.65 159.19C168.28 159.09 167.32 158.94 167.16 158.78C167.02 158.65 166.91 158.47 166.92 158.39C166.92 158.31 166.66 157.61 166.33 156.83C166 156.05 165.61 155.16 165.47 154.84C165.33 154.51 164.9 153.57 164.51 152.74C164.13 151.91 163.81 151.17 163.81 151.09C163.81 151.01 163.64 150.59 163.43 150.16C163.23 149.74 162.85 148.9 162.59 148.31C162.32 147.73 161.97 146.94 161.81 146.56C161.65 146.19 161.01 144.74 160.4 143.35C159.79 141.96 159.19 140.71 159.07 140.58C158.89 140.38 158.8 140.38 158.6 140.58C158.46 140.71 158.14 141.39 157.89 142.09C157.63 142.78 157.03 144.42 155.64 148.12L155.84 149.92C155.95 150.91 156.16 152.95 156.32 154.45C156.47 155.94 156.66 157.47 156.91 158.51L155.64 158.37C154.95 158.3 153.98 158.24 152.63 158.24L152.38 155.76C152.24 154.4 152.05 152.62 151.95 151.82C151.85 151.02 151.63 148.91 151.46 147.15C151.29 145.38 151.07 143.1 150.96 142.09C150.85 141.07 150.72 139.91 150.65 139.51L150.54 138.78ZM30.41 139.23C30.95 139.24 31.34 139.32 31.33 139.44C31.33 139.56 31.19 140.88 31.03 142.38C30.87 143.88 30.65 145.85 30.55 146.76C30.45 147.67 30.31 149.16 30.25 150.07C30.19 150.98 30.06 152.29 29.96 152.99C29.87 153.68 29.67 155.36 29.53 156.72C29.31 158.93 29.24 159.2 28.89 159.26C28.68 159.3 27.76 159.35 25.19 159.43L25.34 158.11C25.42 157.38 25.62 155.47 25.79 153.86C25.95 152.26 26.17 150.15 26.27 149.19C26.37 148.23 26.59 146.13 26.75 144.52C26.92 142.91 27.11 141.1 27.32 139.38L28.4 139.31C28.99 139.27 29.9 139.23 30.41 139.23ZM21.08 139.56L22.11 139.56C22.81 139.56 23.15 139.64 23.15 139.8C23.16 139.93 22.84 140.92 22.46 141.99C22.07 143.06 21.64 144.29 21.5 144.71C21.35 145.14 21 146.15 20.71 146.95C20.41 147.76 19.9 149.2 18.97 151.92L17.95 151.96C16.93 152.01 16.93 152.01 16.82 151.38C16.77 151.03 16.6 149.65 16.44 148.31C16.29 146.98 15.98 144.52 15.76 142.86C15.55 141.21 15.37 139.83 15.37 139.8C15.37 139.77 16.07 139.75 16.93 139.75C18.38 139.75 18.49 139.78 18.57 140.19C18.62 140.43 18.73 141.14 18.82 141.77C18.9 142.39 19.08 142.98 19.21 143.08C19.36 143.19 19.57 143.16 19.76 143.01C19.92 142.88 20.05 142.64 20.04 142.48C20.04 142.31 20.11 142.1 20.2 141.99C20.29 141.88 20.52 141.29 20.72 140.68L21.08 139.56ZM177.21 139.56L179.7 139.66C181.08 139.72 184.04 139.85 190.37 140.17L191.2 140.98C191.76 141.53 192.06 142.02 192.14 142.48C192.2 142.85 192.33 143.59 192.43 144.13C192.53 144.67 192.83 146.46 193.09 148.12C193.35 149.78 193.65 151.71 193.75 152.4C193.86 153.1 194.09 154.59 194.61 157.75L192.32 160.81L190.47 160.7C189.45 160.65 187.44 160.51 185.99 160.39C184.55 160.28 182.84 160.14 181.03 159.99L177.71 156.59L177.47 155.13C177.34 154.32 177.12 152.85 176.75 150.05L178.5 150.18C179.46 150.25 180.31 150.41 180.39 150.53C180.47 150.65 180.58 151.32 180.65 152.01C180.72 152.71 180.85 153.63 180.95 154.06C181.04 154.48 181.12 155.1 181.12 155.42C181.12 155.74 181.27 156.15 181.46 156.32C181.7 156.55 182.34 156.68 183.56 156.77C184.52 156.84 186.32 156.98 187.55 157.09C189.3 157.24 189.84 157.22 190.05 157.03C190.25 156.85 190.29 156.5 190.2 155.71C190.13 155.12 189.94 153.76 189.78 152.69C189.62 151.62 189.4 150.31 189.29 149.77C189.19 149.24 188.97 147.88 188.81 146.76C188.64 145.63 188.41 144.14 188.29 143.45C188.18 142.75 187.98 142.07 187.86 141.93C187.71 141.76 187.04 141.68 185.7 141.67C184.63 141.67 182.7 141.6 181.42 141.53C179.36 141.41 179.01 141.34 178.44 140.91C178.09 140.65 177.67 140.24 177.5 140L177.21 139.56ZM8.6 140.14L11.58 140.14L11.42 141.26C11.33 141.87 11.19 142.95 11.1 143.64C11.02 144.34 10.72 146.75 10.44 149C10.15 151.24 9.84 153.74 9.73 154.54C9.63 155.35 9.4 157.05 9.23 158.34C9.05 159.62 8.9 160.7 8.88 160.73C8.87 160.76 8.17 160.83 7.34 160.88C6.52 160.93 5.84 160.9 5.84 160.82C5.84 160.74 5.93 160.06 6.05 159.31C6.16 158.56 6.37 156.9 6.53 155.61C6.68 154.33 6.93 152.27 7.09 151.04C7.24 149.81 7.47 148.19 7.58 147.44C7.7 146.69 7.88 145.29 7.98 144.32C8.09 143.36 8.27 142.03 8.39 141.36L8.6 140.14ZM196.88 141.7C196.97 142.07 197.09 142.82 197.15 143.35C197.22 143.97 197.21 144.15 197.1 143.84C197.02 143.57 196.89 142.83 196.83 142.18C196.75 141.35 196.76 141.21 196.88 141.7ZM3.47 142.56C3.5 142.6 3.43 143.36 3.3 144.26C3.18 145.15 3.04 145.93 2.99 145.98C2.95 146.03 2.91 145.92 2.91 145.74C2.92 145.55 3.03 144.74 3.16 143.94C3.3 143.15 3.43 142.52 3.47 142.56ZM197.46 145.2C197.54 145.47 197.66 146.21 197.83 148.02L197.56 146.76C197.42 146.06 197.3 145.32 197.3 145.1C197.31 144.79 197.34 144.81 197.46 145.2ZM2.85 146.78C2.9 146.85 2.85 147.64 2.73 148.53C2.61 149.43 2.47 150.21 2.4 150.26C2.34 150.31 2.34 150.01 2.4 149.58C2.46 149.15 2.57 148.32 2.63 147.73C2.69 147.14 2.79 146.72 2.85 146.78ZM47.31 150.35C47.42 150.42 47.5 150.93 47.5 151.49C47.49 152.04 47.45 152.46 47.41 152.4C47.36 152.35 47.28 151.84 47.22 151.27C47.15 150.58 47.18 150.27 47.31 150.35ZM73.15 150.65C73.26 150.65 73.34 151.18 73.33 151.87C73.32 152.54 73.28 152.97 73.23 152.84C73.19 152.71 73.05 152.66 72.92 152.74C72.74 152.85 72.72 152.69 72.82 152.11C72.89 151.68 72.95 151.18 72.96 150.99C72.96 150.8 73.04 150.65 73.15 150.65ZM2.27 150.88C2.33 150.96 2.32 151.53 2.25 152.15C2.18 152.77 2.08 153.23 2.03 153.18C1.97 153.13 1.98 152.56 2.05 151.92C2.11 151.27 2.22 150.81 2.27 150.88ZM138.04 152.66C138.78 152.66 139.05 152.7 138.62 152.74C138.19 152.78 137.58 152.78 137.26 152.74C136.94 152.69 137.29 152.66 138.04 152.66ZM126.92 153.57C126.96 153.62 127.04 154.28 127.1 155.03C127.19 156.08 127.17 156.21 127.04 155.61C126.95 155.19 126.86 154.53 126.85 154.15C126.84 153.78 126.87 153.52 126.92 153.57ZM44.18 153.96C44.28 153.96 44.36 154.29 44.35 154.69C44.35 155.23 44.3 155.34 44.16 155.13C44.01 154.9 43.98 154.94 43.98 155.32C43.98 155.59 43.93 155.76 43.87 155.71C43.8 155.66 43.81 155.24 43.88 154.79C43.94 154.33 44.08 153.96 44.18 153.96ZM199.02 154.74C199.12 155.11 199.24 155.81 199.3 156.29C199.37 156.86 199.35 157.03 199.25 156.78C199.15 156.57 199.03 155.87 198.97 155.22C198.88 154.35 198.89 154.23 199.02 154.74ZM73.29 154.74C73.33 154.74 73.34 155.29 73.32 155.95C73.3 156.62 73.22 157.39 73.14 157.66C73.04 157.99 72.97 157.64 72.94 156.57C72.91 155.71 72.97 154.94 73.05 154.87C73.14 154.8 73.25 154.74 73.29 154.74ZM1.71 155.52C1.75 155.78 1.73 156.31 1.66 156.68C1.6 157.06 1.5 157.32 1.45 157.27C1.4 157.21 1.42 156.69 1.5 156.1C1.59 155.43 1.67 155.21 1.71 155.52ZM43.69 156.32C43.73 156.39 43.68 157.02 43.58 157.73C43.47 158.44 43.34 159.02 43.29 159.02C43.23 159.02 43.24 158.65 43.3 158.19C43.36 157.74 43.45 157.1 43.5 156.78C43.56 156.46 43.64 156.25 43.69 156.32ZM17.61 157.32L16.54 157.47C15.95 157.55 15.16 157.62 14.11 157.61L14.69 157.46C15.01 157.38 15.8 157.32 17.61 157.32ZM161.77 158.11C161.88 158.15 162.43 159.27 162.99 160.59C163.55 161.92 163.99 163.03 163.96 163.06C163.93 163.09 163.5 162.09 163 160.85C162.1 158.64 162.08 158.6 161.75 159.9L161.66 158.97C161.61 158.4 161.65 158.07 161.77 158.11ZM1.27 158.35C1.29 158.46 1.25 159.03 1.16 159.62C1.08 160.24 1.01 160.43 0.99 160.09C0.98 159.77 1.03 159.2 1.1 158.83C1.17 158.45 1.25 158.24 1.27 158.35ZM14.14 158.53C14.17 158.75 14.07 159.71 13.92 160.67C13.67 162.21 13.65 162.27 13.73 161.16C13.78 160.47 13.88 159.5 13.96 159.02C14.03 158.54 14.11 158.32 14.14 158.53ZM20.39 158.53C20.43 158.75 20.41 159.4 20.34 159.99C20.27 160.58 20.18 161.02 20.13 160.97C20.08 160.91 20.1 160.26 20.17 159.51C20.25 158.76 20.35 158.32 20.39 158.53ZM71.73 159.08C71.76 159.13 71.7 159.75 71.59 160.46C71.49 161.17 71.36 161.74 71.3 161.74C71.25 161.74 71.26 161.28 71.32 160.72C71.38 160.16 71.49 159.54 71.56 159.35C71.63 159.15 71.71 159.03 71.73 159.08ZM44.68 160.67C44.72 161.21 44.79 162.02 44.94 163.3L45.72 163.25C46.15 163.23 46.5 163.27 46.5 163.35C46.5 163.43 46.13 163.5 45.67 163.5C44.87 163.5 44.84 163.48 44.7 162.77C44.62 162.37 44.57 161.51 44.59 160.87C44.62 159.73 44.62 159.73 44.68 160.67ZM42.71 161.76C42.75 161.82 42.72 162.26 42.5 163.59L41.34 163.74C40.7 163.83 39.74 163.87 39.2 163.84C38.46 163.8 38.72 163.74 42.3 163.4L42.46 162.52C42.55 162.04 42.66 161.7 42.71 161.76Z" />
		<path class="shp3" d="M89.01 161.89C90.08 161.92 91.87 161.92 93 161.89C94.12 161.86 93.24 161.83 91.05 161.83C88.86 161.83 87.94 161.86 89.01 161.89Z" />
		<path class="shp4" d="M97.67 161.89C99 161.92 101.1 161.92 102.33 161.89C103.57 161.86 102.47 161.83 99.9 161.83C97.33 161.83 96.33 161.86 97.67 161.89Z" />
		<path class="shp3" d="M106.52 161.89C107.69 161.92 109.53 161.92 110.6 161.89C111.67 161.86 110.71 161.83 108.46 161.83C106.22 161.83 105.34 161.86 106.52 161.89Z" />
		<path class="shp4" d="M19.77 162.96C19.71 163.52 19.65 164.27 19.65 164.62C19.65 165.22 19.68 165.25 20.38 165.22C21.08 165.19 21.08 165.18 20.48 165.12L19.84 165.05C20.01 162.64 20.02 161.94 19.98 161.94C19.93 161.94 19.84 162.4 19.77 162.96ZM72.96 162.18C72.96 162.26 73.94 162.32 75.15 162.31C76.35 162.29 78.47 162.22 79.86 162.13C82.06 162 81.77 161.98 77.68 162.01C75.08 162.02 72.96 162.1 72.96 162.18ZM114.11 162.08C114.53 162.12 115.28 162.12 115.76 162.08C116.24 162.04 115.89 162.01 114.98 162.01C114.07 162.01 113.68 162.04 114.11 162.08ZM119.94 162.14C121.33 162.22 123.7 162.28 125.19 162.27L127.92 162.26C124.9 162.05 122.54 161.99 120.72 162L117.41 162.01L119.94 162.14ZM67.32 162.47C67.8 162.51 68.5 162.51 68.87 162.47C69.25 162.43 68.85 162.39 68 162.4C67.14 162.4 66.83 162.43 67.32 162.47ZM61.48 162.67C62.07 162.71 63.07 162.71 63.72 162.67C64.36 162.63 63.88 162.6 62.65 162.6C61.42 162.6 60.89 162.63 61.48 162.67ZM136.28 162.67C136.93 162.71 137.89 162.71 138.42 162.67C138.96 162.63 138.43 162.6 137.26 162.6C136.08 162.6 135.64 162.63 136.28 162.67ZM140.66 162.77C140.66 162.85 141.21 162.9 141.88 162.89C142.55 162.88 142.96 162.84 142.8 162.8C142.64 162.77 142.09 162.71 141.59 162.68C141.08 162.65 140.66 162.69 140.66 162.77ZM197.04 163.84C196.46 164.56 195.93 165.26 195.85 165.39C195.78 165.53 195.74 165.64 195.77 165.64C195.8 165.65 196.25 165.11 196.79 164.44C197.32 163.77 197.87 163.07 198 162.88C198.13 162.68 198.21 162.52 198.17 162.52C198.13 162.52 197.62 163.11 197.04 163.84ZM13.38 163.85C13.3 164.24 13.23 164.81 13.23 165.1C13.23 165.6 13.16 165.65 12.11 165.82L10.99 166.01C12.58 165.87 13.12 165.79 13.23 165.73C13.34 165.68 13.48 165.11 13.55 164.46C13.61 163.81 13.64 163.24 13.6 163.2C13.55 163.16 13.46 163.45 13.38 163.85ZM48.74 163.25C49.06 163.29 49.67 163.29 50.1 163.25C50.53 163.21 50.26 163.17 49.51 163.17C48.76 163.17 48.41 163.2 48.74 163.25ZM149.71 163.25C150.14 163.29 150.88 163.29 151.36 163.25C151.84 163.21 151.49 163.18 150.58 163.18C149.67 163.18 149.28 163.21 149.71 163.25ZM164.17 163.59C164.27 163.81 164.64 164.05 165.01 164.13C165.37 164.21 166.1 164.27 166.63 164.25C167.4 164.23 167.29 164.2 166.11 164.1C164.94 164.01 164.55 163.9 164.3 163.59L163.99 163.2L164.17 163.59ZM158.17 163.7C158.76 163.78 159.72 163.84 160.31 163.84L161.38 163.83C159.87 163.6 158.91 163.54 158.27 163.54L157.1 163.55L158.17 163.7ZM30.84 164.28C30.38 164.37 30.82 164.39 31.91 164.33C32.92 164.27 33.79 164.19 33.84 164.15C33.88 164.11 33.4 164.09 32.77 164.11C32.13 164.12 31.26 164.2 30.84 164.28ZM179.86 165.26C180.4 165.34 181.19 165.41 181.61 165.4L182.39 165.39C181.04 165.15 180.25 165.09 179.77 165.09L178.89 165.11L179.86 165.26ZM184.14 165.64C184.68 165.73 185.55 165.81 186.09 165.82C186.62 165.83 187.02 165.81 186.96 165.76C186.91 165.72 186.04 165.64 185.02 165.58C183.7 165.51 183.45 165.52 184.14 165.64ZM7.39 166.22L6.52 166.36C7.72 166.38 8.51 166.31 9.05 166.23L10.02 166.08C8.66 166.08 7.87 166.15 7.39 166.22ZM189.88 166.1C189.94 166.14 191.12 166.28 192.51 166.41C194.85 166.62 195.06 166.61 195.33 166.29C195.6 165.98 195.59 165.97 195.25 166.19C194.97 166.37 194.4 166.38 192.82 166.23C191.69 166.12 190.54 166.02 190.27 166.02C190 166.02 189.83 166.05 189.88 166.1ZM1.75 166.82C1.44 166.92 1.77 166.94 2.63 166.87C3.38 166.81 4.02 166.72 4.07 166.68C4.11 166.64 3.72 166.62 3.19 166.63C2.67 166.64 2.02 166.72 1.75 166.82Z" />
	</g>
</svg>